  0
SECTION
  2
HEADER
  9
$ACADVER
  1
AC1009
  9
$FILLMODE
 70
0
  9
$EXTMIN
 10
-1.5000
 20
-4.6736
 30
0.0000
  9
$EXTMAX
 10
115.5000
 20
73.9648
 30
0.0000
  0
ENDSEC
  0
SECTION
  2
TABLES
  0
TABLE
  2
LTYPE
 70
1
  0
LTYPE
  2
CONTINUOUS
 70
64
  3
Solid line
 72
65
 73
0
 40
0
  0
ENDTAB
  0
TABLE
  2
LAYER
 70
255
  0
LAYER
  2
31
 70
64
 62
253
  6
CONTINUOUS
  0
LAYER
  2
50
 70
64
 62
253
  6
CONTINUOUS
  0
ENDTAB
  0
ENDSEC
  0
SECTION
  2
BLOCKS
  0
BLOCK
  8
0
  2
RECT
 70
64
 10
0.0000
 20
0.0000
 30
0.0000
  3
RECT
  0
SOLID
  8
0
 10
-0.5000
 20
-0.5000
 30
0.0000
 11
0.5000
 21
-0.5000
 31
0.0000
 12
-0.5000
 22
0.5000
 32
0.0000
 13
0.5000
 23
0.5000
 33
0.0000
  0
ENDBLK
  8
0
  0
BLOCK
  8
0
  2
PIE
 70
64
 10
0.0000
 20
0.0000
 30
0.0000
  3
PIE
  0
CIRCLE
  8
0
 10
0.0000
 20
0.0000
 30
0.0000
 40
0.5000
  0
ENDBLK
  8
0
  0
BLOCK
  8
0
  2
OCTAGONP
 70
64
 10
0.0000
 20
0.0000
 30
0.0000
  3
OCTAGONP
  0
POLYLINE
  8
0
 66
1
 10
0.0000
 20
0.0000
 30
0.0000
 40
0.0000
 41
0.0000
 70
1
  0
VERTEX
  8
0
 10
-0.5000
 20
-0.2071
 30
0.0000
  0
VERTEX
  8
0
 10
-0.5000
 20
0.2071
 30
0.0000
  0
VERTEX
  8
0
 10
-0.2071
 20
0.5000
 30
0.0000
  0
VERTEX
  8
0
 10
0.2071
 20
0.5000
 30
0.0000
  0
VERTEX
  8
0
 10
0.5000
 20
0.2071
 30
0.0000
  0
VERTEX
  8
0
 10
0.5000
 20
-0.2071
 30
0.0000
  0
VERTEX
  8
0
 10
0.2071
 20
-0.5000
 30
0.0000
  0
VERTEX
  8
0
 10
-0.2071
 20
-0.5000
 30
0.0000
  0
SEQEND
  8
0
  0
ENDBLK
  8
0
  0
BLOCK
  8
0
  2
SQUAREP
 70
64
 10
0.0000
 20
0.0000
 30
0.0000
  3
SQUAREP
  0
SOLID
  8
0
 10
-0.5000
 20
-0.5000
 30
0.0000
 11
0.5000
 21
-0.5000
 31
0.0000
 12
-0.5000
 22
0.5000
 32
0.0000
 13
0.5000
 23
0.5000
 33
0.0000
  0
ENDBLK
  8
0
  0
BLOCK
  8
0
  2
ROUNDP
 70
64
 10
0.0000
 20
0.0000
 30
0.0000
  3
ROUNDP
  0
CIRCLE
  8
0
 10
0.0000
 20
0.0000
 30
0.0000
 40
0.5000
  0
ENDBLK
  8
0
  0
BLOCK
  8
0
  2
ANNULUSP
 70
64
 10
0.0000
 20
0.0000
 30
0.0000
  3
ANNULUSP
  0
CIRCLE
  8
0
 10
0.0000
 20
0.0000
 30
0.0000
 40
0.5000
  0
ENDBLK
  8
0
  0
BLOCK
  8
0
  2
THERMALP
 70
64
 10
0.0000
 20
0.0000
 30
0.0000
  3
THERMALP
  0
LINE
  8
0
 10
-0.2379
 20
0.4500
 30
0.0000
 11
0.2379
 21
0.4500
 31
0.0000
  0
LINE
  8
0
 10
0.4500
 20
0.2379
 30
0.0000
 11
0.4500
 21
-0.2379
 31
0.0000
  0
LINE
  8
0
 10
0.2379
 20
-0.4500
 30
0.0000
 11
-0.2379
 21
-0.4500
 31
0.0000
  0
LINE
  8
0
 10
-0.4500
 20
-0.2379
 30
0.0000
 11
-0.4500
 21
0.2379
 31
0.0000
  0
ENDBLK
  8
0
  0
BLOCK
  8
0
  2
OCTAGONV
 70
64
 10
0.0000
 20
0.0000
 30
0.0000
  3
OCTAGONV
  0
POLYLINE
  8
0
 66
1
 10
0.0000
 20
0.0000
 30
0.0000
 40
0.0000
 41
0.0000
 70
1
  0
VERTEX
  8
0
 10
-0.5000
 20
-0.2071
 30
0.0000
  0
VERTEX
  8
0
 10
-0.5000
 20
0.2071
 30
0.0000
  0
VERTEX
  8
0
 10
-0.2071
 20
0.5000
 30
0.0000
  0
VERTEX
  8
0
 10
0.2071
 20
0.5000
 30
0.0000
  0
VERTEX
  8
0
 10
0.5000
 20
0.2071
 30
0.0000
  0
VERTEX
  8
0
 10
0.5000
 20
-0.2071
 30
0.0000
  0
VERTEX
  8
0
 10
0.2071
 20
-0.5000
 30
0.0000
  0
VERTEX
  8
0
 10
-0.2071
 20
-0.5000
 30
0.0000
  0
SEQEND
  8
0
  0
ENDBLK
  8
0
  0
BLOCK
  8
0
  2
SQUAREV
 70
64
 10
0.0000
 20
0.0000
 30
0.0000
  3
SQUAREV
  0
SOLID
  8
0
 10
-0.5000
 20
-0.5000
 30
0.0000
 11
0.5000
 21
-0.5000
 31
0.0000
 12
-0.5000
 22
0.5000
 32
0.0000
 13
0.5000
 23
0.5000
 33
0.0000
  0
ENDBLK
  8
0
  0
BLOCK
  8
0
  2
ROUNDV
 70
64
 10
0.0000
 20
0.0000
 30
0.0000
  3
ROUNDV
  0
CIRCLE
  8
0
 10
0.0000
 20
0.0000
 30
0.0000
 40
0.5000
  0
ENDBLK
  8
0
  0
BLOCK
  8
0
  2
ANNULUSV
 70
64
 10
0.0000
 20
0.0000
 30
0.0000
  3
ANNULUSV
  0
CIRCLE
  8
0
 10
0.0000
 20
0.0000
 30
0.0000
 40
0.5000
  0
ENDBLK
  8
0
  0
BLOCK
  8
0
  2
THERMALV
 70
64
 10
0.0000
 20
0.0000
 30
0.0000
  3
THERMALV
  0
LINE
  8
0
 10
-0.2379
 20
0.4500
 30
0.0000
 11
0.2379
 21
0.4500
 31
0.0000
  0
LINE
  8
0
 10
0.4500
 20
0.2379
 30
0.0000
 11
0.4500
 21
-0.2379
 31
0.0000
  0
LINE
  8
0
 10
0.2379
 20
-0.4500
 30
0.0000
 11
-0.2379
 21
-0.4500
 31
0.0000
  0
LINE
  8
0
 10
-0.4500
 20
-0.2379
 30
0.0000
 11
-0.4500
 21
0.2379
 31
0.0000
  0
ENDBLK
  8
0
  0
BLOCK
  8
0
  2
LONGP100
 70
64
 10
0.0000
 20
0.0000
 30
0.0000
  3
LONGP100
  0
POLYLINE
  8
0
 66
1
 10
0.0000
 20
0.0000
 30
0.0000
 40
0.0000
 41
0.0000
 70
1
  0
VERTEX
  8
0
 10
-0.5000
 20
-0.5000
 30
0.0000
  0
VERTEX
  8
0
 10
0.5000
 20
-0.5000
 30
0.0000
 42
1.0000
  0
VERTEX
  8
0
 10
0.5000
 20
0.5000
 30
0.0000
  0
VERTEX
  8
0
 10
-0.5000
 20
0.5000
 30
0.0000
 42
1.0000
  0
SEQEND
  8
0
  0
ENDBLK
  8
0
  0
ENDSEC
  0
SECTION
  2
ENTITIES
  0
ARC
  8
50
 10
0.9062
 20
63.0938
 30
0.0000
 40
6.1073
 50
266.1859
 51
3.8141
  0
LINE
  8
50
 10
0.5000
 20
7.0000
 30
0.0000
 11
0.5000
 21
57.0000
 31
0.0000
  0
LINE
  8
50
 10
7.0000
 20
63.5000
 30
0.0000
 11
107.0000
 21
63.5000
 31
0.0000
  0
ARC
  8
50
 10
113.0938
 20
63.0938
 30
0.0000
 40
6.1073
 50
176.1859
 51
273.8141
  0
LINE
  8
50
 10
113.5000
 20
57.0000
 30
0.0000
 11
113.5000
 21
7.0000
 31
0.0000
  0
ARC
  8
50
 10
113.0938
 20
0.9062
 30
0.0000
 40
6.1073
 50
86.1859
 51
183.8141
  0
LINE
  8
50
 10
107.0000
 20
0.5000
 30
0.0000
 11
7.0000
 21
0.5000
 31
0.0000
  0
ARC
  8
50
 10
0.9062
 20
0.9062
 30
0.0000
 40
6.1073
 50
356.1859
 51
93.8141
  0
INSERT
  8
31
  2
RECT
 10
99.7750
 20
20.0300
 30
0.0000
 41
1.4000
 42
2.1000
 43
1.0000
 50
90.0000
  0
INSERT
  8
31
  2
RECT
 10
109.7750
 20
20.0300
 30
0.0000
 41
1.4000
 42
2.1000
 43
1.0000
 50
90.0000
  0
INSERT
  8
31
  2
RECT
 10
99.7750
 20
15.5300
 30
0.0000
 41
1.4000
 42
2.1000
 43
1.0000
 50
90.0000
  0
INSERT
  8
31
  2
RECT
 10
109.7750
 20
15.5300
 30
0.0000
 41
1.4000
 42
2.1000
 43
1.0000
 50
90.0000
  0
INSERT
  8
31
  2
RECT
 10
4.4450
 20
48.4200
 30
0.0000
 41
3.5000
 42
1.6000
 43
1.0000
 50
90.0000
  0
INSERT
  8
31
  2
RECT
 10
4.4450
 20
43.0200
 30
0.0000
 41
3.5000
 42
1.6000
 43
1.0000
 50
90.0000
  0
INSERT
  8
31
  2
RECT
 10
109.8550
 20
48.4200
 30
0.0000
 41
3.5000
 42
1.6000
 43
1.0000
 50
90.0000
  0
INSERT
  8
31
  2
RECT
 10
109.8550
 20
43.0200
 30
0.0000
 41
3.5000
 42
1.6000
 43
1.0000
 50
90.0000
  0
INSERT
  8
31
  2
RECT
 10
12.0650
 20
24.8700
 30
0.0000
 41
2.6000
 42
1.6000
 43
1.0000
 50
270.0000
  0
INSERT
  8
31
  2
RECT
 10
12.0650
 20
28.4700
 30
0.0000
 41
2.6000
 42
1.6000
 43
1.0000
 50
270.0000
  0
INSERT
  8
31
  2
RECT
 10
34.2900
 20
24.8700
 30
0.0000
 41
2.6000
 42
1.6000
 43
1.0000
 50
270.0000
  0
INSERT
  8
31
  2
RECT
 10
34.2900
 20
28.4700
 30
0.0000
 41
2.6000
 42
1.6000
 43
1.0000
 50
270.0000
  0
INSERT
  8
31
  2
RECT
 10
60.5950
 20
26.6700
 30
0.0000
 41
1.3000
 42
1.6000
 43
1.0000
 50
0.0000
  0
INSERT
  8
31
  2
RECT
 10
62.5950
 20
26.6700
 30
0.0000
 41
1.3000
 42
1.6000
 43
1.0000
 50
0.0000
  0
INSERT
  8
31
  2
RECT
 10
17.5650
 20
24.1300
 30
0.0000
 41
1.1000
 42
1.0000
 43
1.0000
 50
0.0000
  0
INSERT
  8
31
  2
RECT
 10
19.2650
 20
24.1300
 30
0.0000
 41
1.1000
 42
1.0000
 43
1.0000
 50
0.0000
  0
INSERT
  8
31
  2
RECT
 10
75.7800
 20
23.4950
 30
0.0000
 41
1.1000
 42
1.0000
 43
1.0000
 50
180.0000
  0
INSERT
  8
31
  2
RECT
 10
74.0800
 20
23.4950
 30
0.0000
 41
1.1000
 42
1.0000
 43
1.0000
 50
180.0000
  0
INSERT
  8
31
  2
RECT
 10
25.6150
 20
20.9550
 30
0.0000
 41
1.1000
 42
1.0000
 43
1.0000
 50
180.0000
  0
INSERT
  8
31
  2
RECT
 10
23.9150
 20
20.9550
 30
0.0000
 41
1.1000
 42
1.0000
 43
1.0000
 50
180.0000
  0
INSERT
  8
31
  2
RECT
 10
23.9150
 20
17.1450
 30
0.0000
 41
1.1000
 42
1.0000
 43
1.0000
 50
0.0000
  0
INSERT
  8
31
  2
RECT
 10
25.6150
 20
17.1450
 30
0.0000
 41
1.1000
 42
1.0000
 43
1.0000
 50
0.0000
  0
INSERT
  8
31
  2
RECT
 10
33.2350
 20
20.9550
 30
0.0000
 41
1.1000
 42
1.0000
 43
1.0000
 50
180.0000
  0
INSERT
  8
31
  2
RECT
 10
31.5350
 20
20.9550
 30
0.0000
 41
1.1000
 42
1.0000
 43
1.0000
 50
180.0000
  0
INSERT
  8
31
  2
RECT
 10
14.3900
 20
16.5100
 30
0.0000
 41
1.1000
 42
1.0000
 43
1.0000
 50
0.0000
  0
INSERT
  8
31
  2
RECT
 10
16.0900
 20
16.5100
 30
0.0000
 41
1.1000
 42
1.0000
 43
1.0000
 50
0.0000
  0
INSERT
  8
31
  2
RECT
 10
100.3300
 20
9.9450
 30
0.0000
 41
1.1000
 42
1.0000
 43
1.0000
 50
90.0000
  0
INSERT
  8
31
  2
RECT
 10
100.3300
 20
11.6450
 30
0.0000
 41
1.1000
 42
1.0000
 43
1.0000
 50
90.0000
  0
INSERT
  8
31
  2
RECT
 10
54.9750
 20
10.7950
 30
0.0000
 41
1.3000
 42
1.6000
 43
1.0000
 50
180.0000
  0
INSERT
  8
31
  2
RECT
 10
52.9750
 20
10.7950
 30
0.0000
 41
1.3000
 42
1.6000
 43
1.0000
 50
180.0000
  0
INSERT
  8
31
  2
RECT
 10
76.8350
 20
8.6200
 30
0.0000
 41
1.3000
 42
1.6000
 43
1.0000
 50
270.0000
  0
INSERT
  8
31
  2
RECT
 10
76.8350
 20
6.6200
 30
0.0000
 41
1.3000
 42
1.6000
 43
1.0000
 50
270.0000
  0
INSERT
  8
31
  2
RECT
 10
62.4450
 20
2.5400
 30
0.0000
 41
1.1000
 42
1.0000
 43
1.0000
 50
180.0000
  0
INSERT
  8
31
  2
RECT
 10
60.7450
 20
2.5400
 30
0.0000
 41
1.1000
 42
1.0000
 43
1.0000
 50
180.0000
  0
INSERT
  8
31
  2
RECT
 10
64.5550
 20
2.5400
 30
0.0000
 41
1.1000
 42
1.0000
 43
1.0000
 50
0.0000
  0
INSERT
  8
31
  2
RECT
 10
66.2550
 20
2.5400
 30
0.0000
 41
1.1000
 42
1.0000
 43
1.0000
 50
0.0000
  0
INSERT
  8
31
  2
RECT
 10
16.2150
 20
27.3050
 30
0.0000
 41
2.4000
 42
2.4000
 43
1.0000
 50
180.0000
  0
INSERT
  8
31
  2
RECT
 10
20.6150
 20
27.3050
 30
0.0000
 41
2.4000
 42
2.4000
 43
1.0000
 50
180.0000
  0
INSERT
  8
31
  2
RECT
 10
6.3500
 20
13.2050
 30
0.0000
 41
3.9400
 42
5.8400
 43
1.0000
 50
90.0000
  0
INSERT
  8
31
  2
RECT
 10
6.3500
 20
22.3550
 30
0.0000
 41
3.9400
 42
5.8400
 43
1.0000
 50
90.0000
  0
INSERT
  8
31
  2
RECT
 10
61.0678
 20
28.7800
 30
0.0000
 41
0.3048
 42
0.9906
 43
1.0000
 50
90.0000
  0
INSERT
  8
31
  2
RECT
 10
61.0678
 20
29.4300
 30
0.0000
 41
0.3048
 42
0.9906
 43
1.0000
 50
90.0000
  0
INSERT
  8
31
  2
RECT
 10
61.0678
 20
30.0800
 30
0.0000
 41
0.3048
 42
0.9906
 43
1.0000
 50
90.0000
  0
INSERT
  8
31
  2
RECT
 10
61.0678
 20
30.7300
 30
0.0000
 41
0.3048
 42
0.9906
 43
1.0000
 50
90.0000
  0
INSERT
  8
31
  2
RECT
 10
61.0678
 20
31.3800
 30
0.0000
 41
0.3048
 42
0.9906
 43
1.0000
 50
90.0000
  0
INSERT
  8
31
  2
RECT
 10
61.0678
 20
32.0300
 30
0.0000
 41
0.3048
 42
0.9906
 43
1.0000
 50
90.0000
  0
INSERT
  8
31
  2
RECT
 10
61.0678
 20
32.6800
 30
0.0000
 41
0.3048
 42
0.9906
 43
1.0000
 50
90.0000
  0
INSERT
  8
31
  2
RECT
 10
61.0678
 20
33.3300
 30
0.0000
 41
0.3048
 42
0.9906
 43
1.0000
 50
90.0000
  0
INSERT
  8
31
  2
RECT
 10
61.0678
 20
33.9800
 30
0.0000
 41
0.3048
 42
0.9906
 43
1.0000
 50
90.0000
  0
INSERT
  8
31
  2
RECT
 10
61.0678
 20
34.6300
 30
0.0000
 41
0.3048
 42
0.9906
 43
1.0000
 50
90.0000
  0
INSERT
  8
31
  2
RECT
 10
61.0678
 20
35.2800
 30
0.0000
 41
0.3048
 42
0.9906
 43
1.0000
 50
90.0000
  0
INSERT
  8
31
  2
RECT
 10
61.0678
 20
35.9300
 30
0.0000
 41
0.3048
 42
0.9906
 43
1.0000
 50
90.0000
  0
INSERT
  8
31
  2
RECT
 10
61.0678
 20
36.5800
 30
0.0000
 41
0.3048
 42
0.9906
 43
1.0000
 50
90.0000
  0
INSERT
  8
31
  2
RECT
 10
61.0678
 20
37.2300
 30
0.0000
 41
0.3048
 42
0.9906
 43
1.0000
 50
90.0000
  0
INSERT
  8
31
  2
RECT
 10
61.0678
 20
37.8800
 30
0.0000
 41
0.3048
 42
0.9906
 43
1.0000
 50
90.0000
  0
INSERT
  8
31
  2
RECT
 10
61.0678
 20
38.5300
 30
0.0000
 41
0.3048
 42
0.9906
 43
1.0000
 50
90.0000
  0
INSERT
  8
31
  2
RECT
 10
53.2322
 20
38.5300
 30
0.0000
 41
0.3048
 42
0.9906
 43
1.0000
 50
90.0000
  0
INSERT
  8
31
  2
RECT
 10
53.2322
 20
37.8800
 30
0.0000
 41
0.3048
 42
0.9906
 43
1.0000
 50
90.0000
  0
INSERT
  8
31
  2
RECT
 10
53.2322
 20
37.2300
 30
0.0000
 41
0.3048
 42
0.9906
 43
1.0000
 50
90.0000
  0
INSERT
  8
31
  2
RECT
 10
53.2322
 20
36.5800
 30
0.0000
 41
0.3048
 42
0.9906
 43
1.0000
 50
90.0000
  0
INSERT
  8
31
  2
RECT
 10
53.2322
 20
35.9300
 30
0.0000
 41
0.3048
 42
0.9906
 43
1.0000
 50
90.0000
  0
INSERT
  8
31
  2
RECT
 10
53.2322
 20
35.2800
 30
0.0000
 41
0.3048
 42
0.9906
 43
1.0000
 50
90.0000
  0
INSERT
  8
31
  2
RECT
 10
53.2322
 20
34.6300
 30
0.0000
 41
0.3048
 42
0.9906
 43
1.0000
 50
90.0000
  0
INSERT
  8
31
  2
RECT
 10
53.2322
 20
33.9800
 30
0.0000
 41
0.3048
 42
0.9906
 43
1.0000
 50
90.0000
  0
INSERT
  8
31
  2
RECT
 10
53.2322
 20
33.3300
 30
0.0000
 41
0.3048
 42
0.9906
 43
1.0000
 50
90.0000
  0
INSERT
  8
31
  2
RECT
 10
53.2322
 20
32.6800
 30
0.0000
 41
0.3048
 42
0.9906
 43
1.0000
 50
90.0000
  0
INSERT
  8
31
  2
RECT
 10
53.2322
 20
32.0300
 30
0.0000
 41
0.3048
 42
0.9906
 43
1.0000
 50
90.0000
  0
INSERT
  8
31
  2
RECT
 10
53.2322
 20
31.3800
 30
0.0000
 41
0.3048
 42
0.9906
 43
1.0000
 50
90.0000
  0
INSERT
  8
31
  2
RECT
 10
53.2322
 20
30.7300
 30
0.0000
 41
0.3048
 42
0.9906
 43
1.0000
 50
90.0000
  0
INSERT
  8
31
  2
RECT
 10
53.2322
 20
30.0800
 30
0.0000
 41
0.3048
 42
0.9906
 43
1.0000
 50
90.0000
  0
INSERT
  8
31
  2
RECT
 10
53.2322
 20
29.4300
 30
0.0000
 41
0.3048
 42
0.9906
 43
1.0000
 50
90.0000
  0
INSERT
  8
31
  2
RECT
 10
53.2322
 20
28.7800
 30
0.0000
 41
0.3048
 42
0.9906
 43
1.0000
 50
90.0000
  0
INSERT
  8
31
  2
RECT
 10
66.2300
 20
22.3100
 30
0.0000
 41
1.5000
 42
0.5000
 43
1.0000
 50
270.0000
  0
INSERT
  8
31
  2
RECT
 10
65.4300
 20
22.3100
 30
0.0000
 41
1.5000
 42
0.5000
 43
1.0000
 50
270.0000
  0
INSERT
  8
31
  2
RECT
 10
64.6300
 20
22.3100
 30
0.0000
 41
1.5000
 42
0.5000
 43
1.0000
 50
270.0000
  0
INSERT
  8
31
  2
RECT
 10
63.8300
 20
22.3100
 30
0.0000
 41
1.5000
 42
0.5000
 43
1.0000
 50
270.0000
  0
INSERT
  8
31
  2
RECT
 10
63.0300
 20
22.3100
 30
0.0000
 41
1.5000
 42
0.5000
 43
1.0000
 50
270.0000
  0
INSERT
  8
31
  2
RECT
 10
62.2300
 20
22.3100
 30
0.0000
 41
1.5000
 42
0.5000
 43
1.0000
 50
270.0000
  0
INSERT
  8
31
  2
RECT
 10
61.4300
 20
22.3100
 30
0.0000
 41
1.5000
 42
0.5000
 43
1.0000
 50
270.0000
  0
INSERT
  8
31
  2
RECT
 10
60.6300
 20
22.3100
 30
0.0000
 41
1.5000
 42
0.5000
 43
1.0000
 50
270.0000
  0
INSERT
  8
31
  2
RECT
 10
59.8300
 20
22.3100
 30
0.0000
 41
1.5000
 42
0.5000
 43
1.0000
 50
270.0000
  0
INSERT
  8
31
  2
RECT
 10
59.0300
 20
22.3100
 30
0.0000
 41
1.5000
 42
0.5000
 43
1.0000
 50
270.0000
  0
INSERT
  8
31
  2
RECT
 10
58.2300
 20
22.3100
 30
0.0000
 41
1.5000
 42
0.5000
 43
1.0000
 50
270.0000
  0
INSERT
  8
31
  2
RECT
 10
56.4300
 20
20.5100
 30
0.0000
 41
0.5000
 42
1.5000
 43
1.0000
 50
270.0000
  0
INSERT
  8
31
  2
RECT
 10
56.4300
 20
19.7100
 30
0.0000
 41
0.5000
 42
1.5000
 43
1.0000
 50
270.0000
  0
INSERT
  8
31
  2
RECT
 10
56.4300
 20
18.9100
 30
0.0000
 41
0.5000
 42
1.5000
 43
1.0000
 50
270.0000
  0
INSERT
  8
31
  2
RECT
 10
56.4300
 20
18.1100
 30
0.0000
 41
0.5000
 42
1.5000
 43
1.0000
 50
270.0000
  0
INSERT
  8
31
  2
RECT
 10
56.4300
 20
17.3100
 30
0.0000
 41
0.5000
 42
1.5000
 43
1.0000
 50
270.0000
  0
INSERT
  8
31
  2
RECT
 10
56.4300
 20
16.5100
 30
0.0000
 41
0.5000
 42
1.5000
 43
1.0000
 50
270.0000
  0
INSERT
  8
31
  2
RECT
 10
56.4300
 20
15.7100
 30
0.0000
 41
0.5000
 42
1.5000
 43
1.0000
 50
270.0000
  0
INSERT
  8
31
  2
RECT
 10
56.4300
 20
14.9100
 30
0.0000
 41
0.5000
 42
1.5000
 43
1.0000
 50
270.0000
  0
INSERT
  8
31
  2
RECT
 10
56.4300
 20
14.1100
 30
0.0000
 41
0.5000
 42
1.5000
 43
1.0000
 50
270.0000
  0
INSERT
  8
31
  2
RECT
 10
56.4300
 20
13.3100
 30
0.0000
 41
0.5000
 42
1.5000
 43
1.0000
 50
270.0000
  0
INSERT
  8
31
  2
RECT
 10
56.4300
 20
12.5100
 30
0.0000
 41
0.5000
 42
1.5000
 43
1.0000
 50
270.0000
  0
INSERT
  8
31
  2
RECT
 10
58.2300
 20
10.7100
 30
0.0000
 41
1.5000
 42
0.5000
 43
1.0000
 50
270.0000
  0
INSERT
  8
31
  2
RECT
 10
59.0300
 20
10.7100
 30
0.0000
 41
1.5000
 42
0.5000
 43
1.0000
 50
270.0000
  0
INSERT
  8
31
  2
RECT
 10
59.8300
 20
10.7100
 30
0.0000
 41
1.5000
 42
0.5000
 43
1.0000
 50
270.0000
  0
INSERT
  8
31
  2
RECT
 10
60.6300
 20
10.7100
 30
0.0000
 41
1.5000
 42
0.5000
 43
1.0000
 50
270.0000
  0
INSERT
  8
31
  2
RECT
 10
61.4300
 20
10.7100
 30
0.0000
 41
1.5000
 42
0.5000
 43
1.0000
 50
270.0000
  0
INSERT
  8
31
  2
RECT
 10
62.2300
 20
10.7100
 30
0.0000
 41
1.5000
 42
0.5000
 43
1.0000
 50
270.0000
  0
INSERT
  8
31
  2
RECT
 10
63.0300
 20
10.7100
 30
0.0000
 41
1.5000
 42
0.5000
 43
1.0000
 50
270.0000
  0
INSERT
  8
31
  2
RECT
 10
63.8300
 20
10.7100
 30
0.0000
 41
1.5000
 42
0.5000
 43
1.0000
 50
270.0000
  0
INSERT
  8
31
  2
RECT
 10
64.6300
 20
10.7100
 30
0.0000
 41
1.5000
 42
0.5000
 43
1.0000
 50
270.0000
  0
INSERT
  8
31
  2
RECT
 10
65.4300
 20
10.7100
 30
0.0000
 41
1.5000
 42
0.5000
 43
1.0000
 50
270.0000
  0
INSERT
  8
31
  2
RECT
 10
66.2300
 20
10.7100
 30
0.0000
 41
1.5000
 42
0.5000
 43
1.0000
 50
270.0000
  0
INSERT
  8
31
  2
RECT
 10
68.0300
 20
12.5100
 30
0.0000
 41
0.5000
 42
1.5000
 43
1.0000
 50
270.0000
  0
INSERT
  8
31
  2
RECT
 10
68.0300
 20
13.3100
 30
0.0000
 41
0.5000
 42
1.5000
 43
1.0000
 50
270.0000
  0
INSERT
  8
31
  2
RECT
 10
68.0300
 20
14.1100
 30
0.0000
 41
0.5000
 42
1.5000
 43
1.0000
 50
270.0000
  0
INSERT
  8
31
  2
RECT
 10
68.0300
 20
14.9100
 30
0.0000
 41
0.5000
 42
1.5000
 43
1.0000
 50
270.0000
  0
INSERT
  8
31
  2
RECT
 10
68.0300
 20
15.7100
 30
0.0000
 41
0.5000
 42
1.5000
 43
1.0000
 50
270.0000
  0
INSERT
  8
31
  2
RECT
 10
68.0300
 20
16.5100
 30
0.0000
 41
0.5000
 42
1.5000
 43
1.0000
 50
270.0000
  0
INSERT
  8
31
  2
RECT
 10
68.0300
 20
17.3100
 30
0.0000
 41
0.5000
 42
1.5000
 43
1.0000
 50
270.0000
  0
INSERT
  8
31
  2
RECT
 10
68.0300
 20
18.1100
 30
0.0000
 41
0.5000
 42
1.5000
 43
1.0000
 50
270.0000
  0
INSERT
  8
31
  2
RECT
 10
68.0300
 20
18.9100
 30
0.0000
 41
0.5000
 42
1.5000
 43
1.0000
 50
270.0000
  0
INSERT
  8
31
  2
RECT
 10
68.0300
 20
19.7100
 30
0.0000
 41
0.5000
 42
1.5000
 43
1.0000
 50
270.0000
  0
INSERT
  8
31
  2
RECT
 10
68.0300
 20
20.5100
 30
0.0000
 41
0.5000
 42
1.5000
 43
1.0000
 50
270.0000
  0
INSERT
  8
31
  2
RECT
 10
15.8150
 20
22.2250
 30
0.0000
 41
0.6000
 42
2.2000
 43
1.0000
 50
270.0000
  0
INSERT
  8
31
  2
RECT
 10
15.8150
 20
20.9550
 30
0.0000
 41
0.6000
 42
2.2000
 43
1.0000
 50
270.0000
  0
INSERT
  8
31
  2
RECT
 10
15.8150
 20
19.6850
 30
0.0000
 41
0.6000
 42
2.2000
 43
1.0000
 50
270.0000
  0
INSERT
  8
31
  2
RECT
 10
15.8150
 20
18.4150
 30
0.0000
 41
0.6000
 42
2.2000
 43
1.0000
 50
270.0000
  0
INSERT
  8
31
  2
RECT
 10
21.0150
 20
18.4150
 30
0.0000
 41
0.6000
 42
2.2000
 43
1.0000
 50
270.0000
  0
INSERT
  8
31
  2
RECT
 10
21.0150
 20
19.6850
 30
0.0000
 41
0.6000
 42
2.2000
 43
1.0000
 50
270.0000
  0
INSERT
  8
31
  2
RECT
 10
21.0150
 20
20.9550
 30
0.0000
 41
0.6000
 42
2.2000
 43
1.0000
 50
270.0000
  0
INSERT
  8
31
  2
RECT
 10
21.0150
 20
22.2250
 30
0.0000
 41
0.6000
 42
2.2000
 43
1.0000
 50
270.0000
  0
INSERT
  8
31
  2
RECT
 10
24.1050
 20
25.4000
 30
0.0000
 41
2.2000
 42
1.6000
 43
1.0000
 50
90.0000
  0
INSERT
  8
31
  2
RECT
 10
30.5050
 20
25.4000
 30
0.0000
 41
2.2000
 42
1.6000
 43
1.0000
 50
90.0000
  0
INSERT
  8
31
  2
RECT
 10
71.7550
 20
4.8600
 30
0.0000
 41
1.2000
 42
1.2000
 43
1.0000
 50
180.0000
  0
INSERT
  8
31
  2
RECT
 10
71.7550
 20
2.7600
 30
0.0000
 41
1.2000
 42
1.2000
 43
1.0000
 50
180.0000
  0
INSERT
  8
31
  2
RECT
 10
74.2950
 20
4.8600
 30
0.0000
 41
1.2000
 42
1.2000
 43
1.0000
 50
180.0000
  0
INSERT
  8
31
  2
RECT
 10
74.2950
 20
2.7600
 30
0.0000
 41
1.2000
 42
1.2000
 43
1.0000
 50
180.0000
  0
INSERT
  8
31
  2
RECT
 10
80.1950
 20
6.9300
 30
0.0000
 41
6.0400
 42
3.4000
 43
1.0000
 50
90.0000
  0
INSERT
  8
31
  2
RECT
 10
93.7950
 20
6.9300
 30
0.0000
 41
6.0400
 42
3.4000
 43
1.0000
 50
90.0000
  0
INSERT
  8
31
  2
RECT
 10
85.1200
 20
13.3500
 30
0.0000
 41
3.0000
 42
0.7000
 43
1.0000
 50
90.0000
  0
INSERT
  8
31
  2
RECT
 10
86.3700
 20
13.3500
 30
0.0000
 41
3.0000
 42
0.7000
 43
1.0000
 50
90.0000
  0
INSERT
  8
31
  2
RECT
 10
87.6200
 20
13.3500
 30
0.0000
 41
3.0000
 42
0.7000
 43
1.0000
 50
90.0000
  0
INSERT
  8
31
  2
RECT
 10
88.8700
 20
13.3500
 30
0.0000
 41
3.0000
 42
0.7000
 43
1.0000
 50
90.0000
  0
INSERT
  8
31
  2
RECT
 10
57.4040
 20
5.7150
 30
0.0000
 41
5.3340
 42
1.9304
 43
1.0000
 50
0.0000
  0
INSERT
  8
31
  2
RECT
 10
67.0560
 20
5.7150
 30
0.0000
 41
5.3340
 42
1.9304
 43
1.0000
 50
0.0000
  0
INSERT
  8
31
  2
RECT
 10
48.6800
 20
28.5750
 30
0.0000
 41
1.0000
 42
1.1000
 43
1.0000
 50
0.0000
  0
INSERT
  8
31
  2
RECT
 10
50.3800
 20
28.5750
 30
0.0000
 41
1.0000
 42
1.1000
 43
1.0000
 50
0.0000
  0
INSERT
  8
31
  2
RECT
 10
75.7800
 20
21.5900
 30
0.0000
 41
1.0000
 42
1.1000
 43
1.0000
 50
180.0000
  0
INSERT
  8
31
  2
RECT
 10
74.0800
 20
21.5900
 30
0.0000
 41
1.0000
 42
1.1000
 43
1.0000
 50
180.0000
  0
INSERT
  8
31
  2
RECT
 10
25.6150
 20
19.0500
 30
0.0000
 41
1.0000
 42
1.1000
 43
1.0000
 50
180.0000
  0
INSERT
  8
31
  2
RECT
 10
23.9150
 20
19.0500
 30
0.0000
 41
1.0000
 42
1.1000
 43
1.0000
 50
180.0000
  0
INSERT
  8
31
  2
RECT
 10
39.3700
 20
20.5350
 30
0.0000
 41
1.0000
 42
1.1000
 43
1.0000
 50
270.0000
  0
INSERT
  8
31
  2
RECT
 10
39.3700
 20
18.8350
 30
0.0000
 41
1.0000
 42
1.1000
 43
1.0000
 50
270.0000
  0
INSERT
  8
31
  2
RECT
 10
33.2350
 20
17.1450
 30
0.0000
 41
1.0000
 42
1.1000
 43
1.0000
 50
180.0000
  0
INSERT
  8
31
  2
RECT
 10
31.5350
 20
17.1450
 30
0.0000
 41
1.0000
 42
1.1000
 43
1.0000
 50
180.0000
  0
INSERT
  8
31
  2
RECT
 10
31.5350
 20
19.0500
 30
0.0000
 41
1.0000
 42
1.1000
 43
1.0000
 50
0.0000
  0
INSERT
  8
31
  2
RECT
 10
33.2350
 20
19.0500
 30
0.0000
 41
1.0000
 42
1.1000
 43
1.0000
 50
0.0000
  0
INSERT
  8
31
  2
RECT
 10
97.7900
 20
11.6450
 30
0.0000
 41
1.0000
 42
1.1000
 43
1.0000
 50
270.0000
  0
INSERT
  8
31
  2
RECT
 10
97.7900
 20
9.9450
 30
0.0000
 41
1.0000
 42
1.1000
 43
1.0000
 50
270.0000
  0
INSERT
  8
31
  2
RECT
 10
71.7550
 20
6.7700
 30
0.0000
 41
1.0000
 42
1.1000
 43
1.0000
 50
90.0000
  0
INSERT
  8
31
  2
RECT
 10
71.7550
 20
8.4700
 30
0.0000
 41
1.0000
 42
1.1000
 43
1.0000
 50
90.0000
  0
INSERT
  8
31
  2
RECT
 10
74.2950
 20
6.7700
 30
0.0000
 41
1.0000
 42
1.1000
 43
1.0000
 50
90.0000
  0
INSERT
  8
31
  2
RECT
 10
74.2950
 20
8.4700
 30
0.0000
 41
1.0000
 42
1.1000
 43
1.0000
 50
90.0000
  0
INSERT
  8
31
  2
RECT
 10
17.0750
 20
42.0750
 30
0.0000
 41
0.5000
 42
0.9000
 43
1.0000
 50
180.0000
  0
INSERT
  8
31
  2
RECT
 10
16.2750
 20
42.0750
 30
0.0000
 41
0.5000
 42
0.9000
 43
1.0000
 50
180.0000
  0
INSERT
  8
31
  2
RECT
 10
15.4750
 20
42.0750
 30
0.0000
 41
0.5000
 42
0.9000
 43
1.0000
 50
180.0000
  0
INSERT
  8
31
  2
RECT
 10
14.6750
 20
42.0750
 30
0.0000
 41
0.5000
 42
0.9000
 43
1.0000
 50
180.0000
  0
INSERT
  8
31
  2
RECT
 10
14.6750
 20
40.4750
 30
0.0000
 41
0.5000
 42
0.9000
 43
1.0000
 50
180.0000
  0
INSERT
  8
31
  2
RECT
 10
15.4750
 20
40.4750
 30
0.0000
 41
0.5000
 42
0.9000
 43
1.0000
 50
180.0000
  0
INSERT
  8
31
  2
RECT
 10
16.2750
 20
40.4750
 30
0.0000
 41
0.5000
 42
0.9000
 43
1.0000
 50
180.0000
  0
INSERT
  8
31
  2
RECT
 10
17.0750
 20
40.4750
 30
0.0000
 41
0.5000
 42
0.9000
 43
1.0000
 50
180.0000
  0
INSERT
  8
31
  2
RECT
 10
33.5850
 20
42.0750
 30
0.0000
 41
0.5000
 42
0.9000
 43
1.0000
 50
180.0000
  0
INSERT
  8
31
  2
RECT
 10
32.7850
 20
42.0750
 30
0.0000
 41
0.5000
 42
0.9000
 43
1.0000
 50
180.0000
  0
INSERT
  8
31
  2
RECT
 10
31.9850
 20
42.0750
 30
0.0000
 41
0.5000
 42
0.9000
 43
1.0000
 50
180.0000
  0
INSERT
  8
31
  2
RECT
 10
31.1850
 20
42.0750
 30
0.0000
 41
0.5000
 42
0.9000
 43
1.0000
 50
180.0000
  0
INSERT
  8
31
  2
RECT
 10
31.1850
 20
40.4750
 30
0.0000
 41
0.5000
 42
0.9000
 43
1.0000
 50
180.0000
  0
INSERT
  8
31
  2
RECT
 10
31.9850
 20
40.4750
 30
0.0000
 41
0.5000
 42
0.9000
 43
1.0000
 50
180.0000
  0
INSERT
  8
31
  2
RECT
 10
32.7850
 20
40.4750
 30
0.0000
 41
0.5000
 42
0.9000
 43
1.0000
 50
180.0000
  0
INSERT
  8
31
  2
RECT
 10
33.5850
 20
40.4750
 30
0.0000
 41
0.5000
 42
0.9000
 43
1.0000
 50
180.0000
  0
INSERT
  8
31
  2
RECT
 10
54.0450
 20
40.4750
 30
0.0000
 41
0.5000
 42
0.9000
 43
1.0000
 50
0.0000
  0
INSERT
  8
31
  2
RECT
 10
54.8450
 20
40.4750
 30
0.0000
 41
0.5000
 42
0.9000
 43
1.0000
 50
0.0000
  0
INSERT
  8
31
  2
RECT
 10
55.6450
 20
40.4750
 30
0.0000
 41
0.5000
 42
0.9000
 43
1.0000
 50
0.0000
  0
INSERT
  8
31
  2
RECT
 10
56.4450
 20
40.4750
 30
0.0000
 41
0.5000
 42
0.9000
 43
1.0000
 50
0.0000
  0
INSERT
  8
31
  2
RECT
 10
56.4450
 20
42.0750
 30
0.0000
 41
0.5000
 42
0.9000
 43
1.0000
 50
0.0000
  0
INSERT
  8
31
  2
RECT
 10
55.6450
 20
42.0750
 30
0.0000
 41
0.5000
 42
0.9000
 43
1.0000
 50
0.0000
  0
INSERT
  8
31
  2
RECT
 10
54.8450
 20
42.0750
 30
0.0000
 41
0.5000
 42
0.9000
 43
1.0000
 50
0.0000
  0
INSERT
  8
31
  2
RECT
 10
54.0450
 20
42.0750
 30
0.0000
 41
0.5000
 42
0.9000
 43
1.0000
 50
0.0000
  0
INSERT
  8
31
  2
RECT
 10
57.8550
 20
40.4750
 30
0.0000
 41
0.5000
 42
0.9000
 43
1.0000
 50
0.0000
  0
INSERT
  8
31
  2
RECT
 10
58.6550
 20
40.4750
 30
0.0000
 41
0.5000
 42
0.9000
 43
1.0000
 50
0.0000
  0
INSERT
  8
31
  2
RECT
 10
59.4550
 20
40.4750
 30
0.0000
 41
0.5000
 42
0.9000
 43
1.0000
 50
0.0000
  0
INSERT
  8
31
  2
RECT
 10
60.2550
 20
40.4750
 30
0.0000
 41
0.5000
 42
0.9000
 43
1.0000
 50
0.0000
  0
INSERT
  8
31
  2
RECT
 10
60.2550
 20
42.0750
 30
0.0000
 41
0.5000
 42
0.9000
 43
1.0000
 50
0.0000
  0
INSERT
  8
31
  2
RECT
 10
59.4550
 20
42.0750
 30
0.0000
 41
0.5000
 42
0.9000
 43
1.0000
 50
0.0000
  0
INSERT
  8
31
  2
RECT
 10
58.6550
 20
42.0750
 30
0.0000
 41
0.5000
 42
0.9000
 43
1.0000
 50
0.0000
  0
INSERT
  8
31
  2
RECT
 10
57.8550
 20
42.0750
 30
0.0000
 41
0.5000
 42
0.9000
 43
1.0000
 50
0.0000
  0
INSERT
  8
31
  2
RECT
 10
84.3850
 20
42.0750
 30
0.0000
 41
0.5000
 42
0.9000
 43
1.0000
 50
180.0000
  0
INSERT
  8
31
  2
RECT
 10
83.5850
 20
42.0750
 30
0.0000
 41
0.5000
 42
0.9000
 43
1.0000
 50
180.0000
  0
INSERT
  8
31
  2
RECT
 10
82.7850
 20
42.0750
 30
0.0000
 41
0.5000
 42
0.9000
 43
1.0000
 50
180.0000
  0
INSERT
  8
31
  2
RECT
 10
81.9850
 20
42.0750
 30
0.0000
 41
0.5000
 42
0.9000
 43
1.0000
 50
180.0000
  0
INSERT
  8
31
  2
RECT
 10
81.9850
 20
40.4750
 30
0.0000
 41
0.5000
 42
0.9000
 43
1.0000
 50
180.0000
  0
INSERT
  8
31
  2
RECT
 10
82.7850
 20
40.4750
 30
0.0000
 41
0.5000
 42
0.9000
 43
1.0000
 50
180.0000
  0
INSERT
  8
31
  2
RECT
 10
83.5850
 20
40.4750
 30
0.0000
 41
0.5000
 42
0.9000
 43
1.0000
 50
180.0000
  0
INSERT
  8
31
  2
RECT
 10
84.3850
 20
40.4750
 30
0.0000
 41
0.5000
 42
0.9000
 43
1.0000
 50
180.0000
  0
INSERT
  8
31
  2
RECT
 10
100.8950
 20
42.0750
 30
0.0000
 41
0.5000
 42
0.9000
 43
1.0000
 50
180.0000
  0
INSERT
  8
31
  2
RECT
 10
100.0950
 20
42.0750
 30
0.0000
 41
0.5000
 42
0.9000
 43
1.0000
 50
180.0000
  0
INSERT
  8
31
  2
RECT
 10
99.2950
 20
42.0750
 30
0.0000
 41
0.5000
 42
0.9000
 43
1.0000
 50
180.0000
  0
INSERT
  8
31
  2
RECT
 10
98.4950
 20
42.0750
 30
0.0000
 41
0.5000
 42
0.9000
 43
1.0000
 50
180.0000
  0
INSERT
  8
31
  2
RECT
 10
98.4950
 20
40.4750
 30
0.0000
 41
0.5000
 42
0.9000
 43
1.0000
 50
180.0000
  0
INSERT
  8
31
  2
RECT
 10
99.2950
 20
40.4750
 30
0.0000
 41
0.5000
 42
0.9000
 43
1.0000
 50
180.0000
  0
INSERT
  8
31
  2
RECT
 10
100.0950
 20
40.4750
 30
0.0000
 41
0.5000
 42
0.9000
 43
1.0000
 50
180.0000
  0
INSERT
  8
31
  2
RECT
 10
100.8950
 20
40.4750
 30
0.0000
 41
0.5000
 42
0.9000
 43
1.0000
 50
180.0000
  0
INSERT
  8
31
  2
RECT
 10
9.5250
 20
45.7168
 30
0.0000
 41
0.7200
 42
1.7800
 43
1.0000
 50
0.0000
  0
INSERT
  8
31
  2
RECT
 10
10.7950
 20
45.7168
 30
0.0000
 41
0.7200
 42
1.7800
 43
1.0000
 50
0.0000
  0
INSERT
  8
31
  2
RECT
 10
12.0650
 20
45.7168
 30
0.0000
 41
0.7200
 42
1.7800
 43
1.0000
 50
0.0000
  0
INSERT
  8
31
  2
RECT
 10
13.3350
 20
45.7168
 30
0.0000
 41
0.7200
 42
1.7800
 43
1.0000
 50
0.0000
  0
INSERT
  8
31
  2
RECT
 10
13.3350
 20
50.8032
 30
0.0000
 41
0.7200
 42
1.7800
 43
1.0000
 50
0.0000
  0
INSERT
  8
31
  2
RECT
 10
12.0650
 20
50.8032
 30
0.0000
 41
0.7200
 42
1.7800
 43
1.0000
 50
0.0000
  0
INSERT
  8
31
  2
RECT
 10
10.7950
 20
50.8032
 30
0.0000
 41
0.7200
 42
1.7800
 43
1.0000
 50
0.0000
  0
INSERT
  8
31
  2
RECT
 10
9.5250
 20
50.8032
 30
0.0000
 41
0.7200
 42
1.7800
 43
1.0000
 50
0.0000
  0
INSERT
  8
31
  2
RECT
 10
17.1450
 20
45.7168
 30
0.0000
 41
0.7200
 42
1.7800
 43
1.0000
 50
0.0000
  0
INSERT
  8
31
  2
RECT
 10
18.4150
 20
45.7168
 30
0.0000
 41
0.7200
 42
1.7800
 43
1.0000
 50
0.0000
  0
INSERT
  8
31
  2
RECT
 10
19.6850
 20
45.7168
 30
0.0000
 41
0.7200
 42
1.7800
 43
1.0000
 50
0.0000
  0
INSERT
  8
31
  2
RECT
 10
20.9550
 20
45.7168
 30
0.0000
 41
0.7200
 42
1.7800
 43
1.0000
 50
0.0000
  0
INSERT
  8
31
  2
RECT
 10
20.9550
 20
50.8032
 30
0.0000
 41
0.7200
 42
1.7800
 43
1.0000
 50
0.0000
  0
INSERT
  8
31
  2
RECT
 10
19.6850
 20
50.8032
 30
0.0000
 41
0.7200
 42
1.7800
 43
1.0000
 50
0.0000
  0
INSERT
  8
31
  2
RECT
 10
18.4150
 20
50.8032
 30
0.0000
 41
0.7200
 42
1.7800
 43
1.0000
 50
0.0000
  0
INSERT
  8
31
  2
RECT
 10
17.1450
 20
50.8032
 30
0.0000
 41
0.7200
 42
1.7800
 43
1.0000
 50
0.0000
  0
INSERT
  8
31
  2
RECT
 10
24.7650
 20
45.7168
 30
0.0000
 41
0.7200
 42
1.7800
 43
1.0000
 50
0.0000
  0
INSERT
  8
31
  2
RECT
 10
26.0350
 20
45.7168
 30
0.0000
 41
0.7200
 42
1.7800
 43
1.0000
 50
0.0000
  0
INSERT
  8
31
  2
RECT
 10
27.3050
 20
45.7168
 30
0.0000
 41
0.7200
 42
1.7800
 43
1.0000
 50
0.0000
  0
INSERT
  8
31
  2
RECT
 10
28.5750
 20
45.7168
 30
0.0000
 41
0.7200
 42
1.7800
 43
1.0000
 50
0.0000
  0
INSERT
  8
31
  2
RECT
 10
28.5750
 20
50.8032
 30
0.0000
 41
0.7200
 42
1.7800
 43
1.0000
 50
0.0000
  0
INSERT
  8
31
  2
RECT
 10
27.3050
 20
50.8032
 30
0.0000
 41
0.7200
 42
1.7800
 43
1.0000
 50
0.0000
  0
INSERT
  8
31
  2
RECT
 10
26.0350
 20
50.8032
 30
0.0000
 41
0.7200
 42
1.7800
 43
1.0000
 50
0.0000
  0
INSERT
  8
31
  2
RECT
 10
24.7650
 20
50.8032
 30
0.0000
 41
0.7200
 42
1.7800
 43
1.0000
 50
0.0000
  0
INSERT
  8
31
  2
RECT
 10
34.9250
 20
45.7168
 30
0.0000
 41
0.7200
 42
1.7800
 43
1.0000
 50
0.0000
  0
INSERT
  8
31
  2
RECT
 10
36.1950
 20
45.7168
 30
0.0000
 41
0.7200
 42
1.7800
 43
1.0000
 50
0.0000
  0
INSERT
  8
31
  2
RECT
 10
37.4650
 20
45.7168
 30
0.0000
 41
0.7200
 42
1.7800
 43
1.0000
 50
0.0000
  0
INSERT
  8
31
  2
RECT
 10
38.7350
 20
45.7168
 30
0.0000
 41
0.7200
 42
1.7800
 43
1.0000
 50
0.0000
  0
INSERT
  8
31
  2
RECT
 10
38.7350
 20
50.8032
 30
0.0000
 41
0.7200
 42
1.7800
 43
1.0000
 50
0.0000
  0
INSERT
  8
31
  2
RECT
 10
37.4650
 20
50.8032
 30
0.0000
 41
0.7200
 42
1.7800
 43
1.0000
 50
0.0000
  0
INSERT
  8
31
  2
RECT
 10
36.1950
 20
50.8032
 30
0.0000
 41
0.7200
 42
1.7800
 43
1.0000
 50
0.0000
  0
INSERT
  8
31
  2
RECT
 10
34.9250
 20
50.8032
 30
0.0000
 41
0.7200
 42
1.7800
 43
1.0000
 50
0.0000
  0
INSERT
  8
31
  2
RECT
 10
42.5450
 20
45.7168
 30
0.0000
 41
0.7200
 42
1.7800
 43
1.0000
 50
0.0000
  0
INSERT
  8
31
  2
RECT
 10
43.8150
 20
45.7168
 30
0.0000
 41
0.7200
 42
1.7800
 43
1.0000
 50
0.0000
  0
INSERT
  8
31
  2
RECT
 10
45.0850
 20
45.7168
 30
0.0000
 41
0.7200
 42
1.7800
 43
1.0000
 50
0.0000
  0
INSERT
  8
31
  2
RECT
 10
46.3550
 20
45.7168
 30
0.0000
 41
0.7200
 42
1.7800
 43
1.0000
 50
0.0000
  0
INSERT
  8
31
  2
RECT
 10
46.3550
 20
50.8032
 30
0.0000
 41
0.7200
 42
1.7800
 43
1.0000
 50
0.0000
  0
INSERT
  8
31
  2
RECT
 10
45.0850
 20
50.8032
 30
0.0000
 41
0.7200
 42
1.7800
 43
1.0000
 50
0.0000
  0
INSERT
  8
31
  2
RECT
 10
43.8150
 20
50.8032
 30
0.0000
 41
0.7200
 42
1.7800
 43
1.0000
 50
0.0000
  0
INSERT
  8
31
  2
RECT
 10
42.5450
 20
50.8032
 30
0.0000
 41
0.7200
 42
1.7800
 43
1.0000
 50
0.0000
  0
INSERT
  8
31
  2
RECT
 10
49.5300
 20
45.7168
 30
0.0000
 41
0.7200
 42
1.7800
 43
1.0000
 50
0.0000
  0
INSERT
  8
31
  2
RECT
 10
50.8000
 20
45.7168
 30
0.0000
 41
0.7200
 42
1.7800
 43
1.0000
 50
0.0000
  0
INSERT
  8
31
  2
RECT
 10
52.0700
 20
45.7168
 30
0.0000
 41
0.7200
 42
1.7800
 43
1.0000
 50
0.0000
  0
INSERT
  8
31
  2
RECT
 10
53.3400
 20
45.7168
 30
0.0000
 41
0.7200
 42
1.7800
 43
1.0000
 50
0.0000
  0
INSERT
  8
31
  2
RECT
 10
53.3400
 20
50.8032
 30
0.0000
 41
0.7200
 42
1.7800
 43
1.0000
 50
0.0000
  0
INSERT
  8
31
  2
RECT
 10
52.0700
 20
50.8032
 30
0.0000
 41
0.7200
 42
1.7800
 43
1.0000
 50
0.0000
  0
INSERT
  8
31
  2
RECT
 10
50.8000
 20
50.8032
 30
0.0000
 41
0.7200
 42
1.7800
 43
1.0000
 50
0.0000
  0
INSERT
  8
31
  2
RECT
 10
49.5300
 20
50.8032
 30
0.0000
 41
0.7200
 42
1.7800
 43
1.0000
 50
0.0000
  0
INSERT
  8
31
  2
RECT
 10
59.6900
 20
45.7168
 30
0.0000
 41
0.7200
 42
1.7800
 43
1.0000
 50
0.0000
  0
INSERT
  8
31
  2
RECT
 10
60.9600
 20
45.7168
 30
0.0000
 41
0.7200
 42
1.7800
 43
1.0000
 50
0.0000
  0
INSERT
  8
31
  2
RECT
 10
62.2300
 20
45.7168
 30
0.0000
 41
0.7200
 42
1.7800
 43
1.0000
 50
0.0000
  0
INSERT
  8
31
  2
RECT
 10
63.5000
 20
45.7168
 30
0.0000
 41
0.7200
 42
1.7800
 43
1.0000
 50
0.0000
  0
INSERT
  8
31
  2
RECT
 10
63.5000
 20
50.8032
 30
0.0000
 41
0.7200
 42
1.7800
 43
1.0000
 50
0.0000
  0
INSERT
  8
31
  2
RECT
 10
62.2300
 20
50.8032
 30
0.0000
 41
0.7200
 42
1.7800
 43
1.0000
 50
0.0000
  0
INSERT
  8
31
  2
RECT
 10
60.9600
 20
50.8032
 30
0.0000
 41
0.7200
 42
1.7800
 43
1.0000
 50
0.0000
  0
INSERT
  8
31
  2
RECT
 10
59.6900
 20
50.8032
 30
0.0000
 41
0.7200
 42
1.7800
 43
1.0000
 50
0.0000
  0
INSERT
  8
31
  2
RECT
 10
67.3100
 20
45.7168
 30
0.0000
 41
0.7200
 42
1.7800
 43
1.0000
 50
0.0000
  0
INSERT
  8
31
  2
RECT
 10
68.5800
 20
45.7168
 30
0.0000
 41
0.7200
 42
1.7800
 43
1.0000
 50
0.0000
  0
INSERT
  8
31
  2
RECT
 10
69.8500
 20
45.7168
 30
0.0000
 41
0.7200
 42
1.7800
 43
1.0000
 50
0.0000
  0
INSERT
  8
31
  2
RECT
 10
71.1200
 20
45.7168
 30
0.0000
 41
0.7200
 42
1.7800
 43
1.0000
 50
0.0000
  0
INSERT
  8
31
  2
RECT
 10
71.1200
 20
50.8032
 30
0.0000
 41
0.7200
 42
1.7800
 43
1.0000
 50
0.0000
  0
INSERT
  8
31
  2
RECT
 10
69.8500
 20
50.8032
 30
0.0000
 41
0.7200
 42
1.7800
 43
1.0000
 50
0.0000
  0
INSERT
  8
31
  2
RECT
 10
68.5800
 20
50.8032
 30
0.0000
 41
0.7200
 42
1.7800
 43
1.0000
 50
0.0000
  0
INSERT
  8
31
  2
RECT
 10
67.3100
 20
50.8032
 30
0.0000
 41
0.7200
 42
1.7800
 43
1.0000
 50
0.0000
  0
INSERT
  8
31
  2
RECT
 10
75.5650
 20
45.7168
 30
0.0000
 41
0.7200
 42
1.7800
 43
1.0000
 50
0.0000
  0
INSERT
  8
31
  2
RECT
 10
76.8350
 20
45.7168
 30
0.0000
 41
0.7200
 42
1.7800
 43
1.0000
 50
0.0000
  0
INSERT
  8
31
  2
RECT
 10
78.1050
 20
45.7168
 30
0.0000
 41
0.7200
 42
1.7800
 43
1.0000
 50
0.0000
  0
INSERT
  8
31
  2
RECT
 10
79.3750
 20
45.7168
 30
0.0000
 41
0.7200
 42
1.7800
 43
1.0000
 50
0.0000
  0
INSERT
  8
31
  2
RECT
 10
79.3750
 20
50.8032
 30
0.0000
 41
0.7200
 42
1.7800
 43
1.0000
 50
0.0000
  0
INSERT
  8
31
  2
RECT
 10
78.1050
 20
50.8032
 30
0.0000
 41
0.7200
 42
1.7800
 43
1.0000
 50
0.0000
  0
INSERT
  8
31
  2
RECT
 10
76.8350
 20
50.8032
 30
0.0000
 41
0.7200
 42
1.7800
 43
1.0000
 50
0.0000
  0
INSERT
  8
31
  2
RECT
 10
75.5650
 20
50.8032
 30
0.0000
 41
0.7200
 42
1.7800
 43
1.0000
 50
0.0000
  0
INSERT
  8
31
  2
RECT
 10
85.7250
 20
45.7168
 30
0.0000
 41
0.7200
 42
1.7800
 43
1.0000
 50
0.0000
  0
INSERT
  8
31
  2
RECT
 10
86.9950
 20
45.7168
 30
0.0000
 41
0.7200
 42
1.7800
 43
1.0000
 50
0.0000
  0
INSERT
  8
31
  2
RECT
 10
88.2650
 20
45.7168
 30
0.0000
 41
0.7200
 42
1.7800
 43
1.0000
 50
0.0000
  0
INSERT
  8
31
  2
RECT
 10
89.5350
 20
45.7168
 30
0.0000
 41
0.7200
 42
1.7800
 43
1.0000
 50
0.0000
  0
INSERT
  8
31
  2
RECT
 10
89.5350
 20
50.8032
 30
0.0000
 41
0.7200
 42
1.7800
 43
1.0000
 50
0.0000
  0
INSERT
  8
31
  2
RECT
 10
88.2650
 20
50.8032
 30
0.0000
 41
0.7200
 42
1.7800
 43
1.0000
 50
0.0000
  0
INSERT
  8
31
  2
RECT
 10
86.9950
 20
50.8032
 30
0.0000
 41
0.7200
 42
1.7800
 43
1.0000
 50
0.0000
  0
INSERT
  8
31
  2
RECT
 10
85.7250
 20
50.8032
 30
0.0000
 41
0.7200
 42
1.7800
 43
1.0000
 50
0.0000
  0
INSERT
  8
31
  2
RECT
 10
93.3450
 20
45.7168
 30
0.0000
 41
0.7200
 42
1.7800
 43
1.0000
 50
0.0000
  0
INSERT
  8
31
  2
RECT
 10
94.6150
 20
45.7168
 30
0.0000
 41
0.7200
 42
1.7800
 43
1.0000
 50
0.0000
  0
INSERT
  8
31
  2
RECT
 10
95.8850
 20
45.7168
 30
0.0000
 41
0.7200
 42
1.7800
 43
1.0000
 50
0.0000
  0
INSERT
  8
31
  2
RECT
 10
97.1550
 20
45.7168
 30
0.0000
 41
0.7200
 42
1.7800
 43
1.0000
 50
0.0000
  0
INSERT
  8
31
  2
RECT
 10
97.1550
 20
50.8032
 30
0.0000
 41
0.7200
 42
1.7800
 43
1.0000
 50
0.0000
  0
INSERT
  8
31
  2
RECT
 10
95.8850
 20
50.8032
 30
0.0000
 41
0.7200
 42
1.7800
 43
1.0000
 50
0.0000
  0
INSERT
  8
31
  2
RECT
 10
94.6150
 20
50.8032
 30
0.0000
 41
0.7200
 42
1.7800
 43
1.0000
 50
0.0000
  0
INSERT
  8
31
  2
RECT
 10
93.3450
 20
50.8032
 30
0.0000
 41
0.7200
 42
1.7800
 43
1.0000
 50
0.0000
  0
INSERT
  8
31
  2
RECT
 10
100.9650
 20
45.7168
 30
0.0000
 41
0.7200
 42
1.7800
 43
1.0000
 50
0.0000
  0
INSERT
  8
31
  2
RECT
 10
102.2350
 20
45.7168
 30
0.0000
 41
0.7200
 42
1.7800
 43
1.0000
 50
0.0000
  0
INSERT
  8
31
  2
RECT
 10
103.5050
 20
45.7168
 30
0.0000
 41
0.7200
 42
1.7800
 43
1.0000
 50
0.0000
  0
INSERT
  8
31
  2
RECT
 10
104.7750
 20
45.7168
 30
0.0000
 41
0.7200
 42
1.7800
 43
1.0000
 50
0.0000
  0
INSERT
  8
31
  2
RECT
 10
104.7750
 20
50.8032
 30
0.0000
 41
0.7200
 42
1.7800
 43
1.0000
 50
0.0000
  0
INSERT
  8
31
  2
RECT
 10
103.5050
 20
50.8032
 30
0.0000
 41
0.7200
 42
1.7800
 43
1.0000
 50
0.0000
  0
INSERT
  8
31
  2
RECT
 10
102.2350
 20
50.8032
 30
0.0000
 41
0.7200
 42
1.7800
 43
1.0000
 50
0.0000
  0
INSERT
  8
31
  2
RECT
 10
100.9650
 20
50.8032
 30
0.0000
 41
0.7200
 42
1.7800
 43
1.0000
 50
0.0000
  0
INSERT
  8
31
  2
RECT
 10
39.3668
 20
26.6700
 30
0.0000
 41
0.7200
 42
1.7800
 43
1.0000
 50
270.0000
  0
INSERT
  8
31
  2
RECT
 10
39.3668
 20
25.4000
 30
0.0000
 41
0.7200
 42
1.7800
 43
1.0000
 50
270.0000
  0
INSERT
  8
31
  2
RECT
 10
39.3668
 20
24.1300
 30
0.0000
 41
0.7200
 42
1.7800
 43
1.0000
 50
270.0000
  0
INSERT
  8
31
  2
RECT
 10
39.3668
 20
22.8600
 30
0.0000
 41
0.7200
 42
1.7800
 43
1.0000
 50
270.0000
  0
INSERT
  8
31
  2
RECT
 10
44.4532
 20
22.8600
 30
0.0000
 41
0.7200
 42
1.7800
 43
1.0000
 50
270.0000
  0
INSERT
  8
31
  2
RECT
 10
44.4532
 20
24.1300
 30
0.0000
 41
0.7200
 42
1.7800
 43
1.0000
 50
270.0000
  0
INSERT
  8
31
  2
RECT
 10
44.4532
 20
25.4000
 30
0.0000
 41
0.7200
 42
1.7800
 43
1.0000
 50
270.0000
  0
INSERT
  8
31
  2
RECT
 10
44.4532
 20
26.6700
 30
0.0000
 41
0.7200
 42
1.7800
 43
1.0000
 50
270.0000
  0
ENDSEC
  0
EOF
