  0
SECTION
  2
HEADER
  9
$ACADVER
  1
AC1009
  9
$FILLMODE
 70
0
  9
$EXTMIN
 10
-2.1350
 20
-1.9850
 30
0.0000
  9
$EXTMAX
 10
114.8650
 20
52.3748
 30
0.0000
  0
ENDSEC
  0
SECTION
  2
TABLES
  0
TABLE
  2
LTYPE
 70
1
  0
LTYPE
  2
CONTINUOUS
 70
64
  3
Solid line
 72
65
 73
0
 40
0
  0
ENDTAB
  0
TABLE
  2
LAYER
 70
255
  0
LAYER
  2
31
 70
64
 62
253
  6
CONTINUOUS
  0
LAYER
  2
50
 70
64
 62
253
  6
CONTINUOUS
  0
ENDTAB
  0
ENDSEC
  0
SECTION
  2
BLOCKS
  0
BLOCK
  8
0
  2
RECT
 70
64
 10
0.0000
 20
0.0000
 30
0.0000
  3
RECT
  0
SOLID
  8
0
 10
-0.5000
 20
-0.5000
 30
0.0000
 11
0.5000
 21
-0.5000
 31
0.0000
 12
-0.5000
 22
0.5000
 32
0.0000
 13
0.5000
 23
0.5000
 33
0.0000
  0
ENDBLK
  8
0
  0
BLOCK
  8
0
  2
PIE
 70
64
 10
0.0000
 20
0.0000
 30
0.0000
  3
PIE
  0
CIRCLE
  8
0
 10
0.0000
 20
0.0000
 30
0.0000
 40
0.5000
  0
ENDBLK
  8
0
  0
BLOCK
  8
0
  2
OCTAGONP
 70
64
 10
0.0000
 20
0.0000
 30
0.0000
  3
OCTAGONP
  0
POLYLINE
  8
0
 66
1
 10
0.0000
 20
0.0000
 30
0.0000
 40
0.0000
 41
0.0000
 70
1
  0
VERTEX
  8
0
 10
-0.5000
 20
-0.2071
 30
0.0000
  0
VERTEX
  8
0
 10
-0.5000
 20
0.2071
 30
0.0000
  0
VERTEX
  8
0
 10
-0.2071
 20
0.5000
 30
0.0000
  0
VERTEX
  8
0
 10
0.2071
 20
0.5000
 30
0.0000
  0
VERTEX
  8
0
 10
0.5000
 20
0.2071
 30
0.0000
  0
VERTEX
  8
0
 10
0.5000
 20
-0.2071
 30
0.0000
  0
VERTEX
  8
0
 10
0.2071
 20
-0.5000
 30
0.0000
  0
VERTEX
  8
0
 10
-0.2071
 20
-0.5000
 30
0.0000
  0
SEQEND
  8
0
  0
ENDBLK
  8
0
  0
BLOCK
  8
0
  2
SQUAREP
 70
64
 10
0.0000
 20
0.0000
 30
0.0000
  3
SQUAREP
  0
SOLID
  8
0
 10
-0.5000
 20
-0.5000
 30
0.0000
 11
0.5000
 21
-0.5000
 31
0.0000
 12
-0.5000
 22
0.5000
 32
0.0000
 13
0.5000
 23
0.5000
 33
0.0000
  0
ENDBLK
  8
0
  0
BLOCK
  8
0
  2
ROUNDP
 70
64
 10
0.0000
 20
0.0000
 30
0.0000
  3
ROUNDP
  0
CIRCLE
  8
0
 10
0.0000
 20
0.0000
 30
0.0000
 40
0.5000
  0
ENDBLK
  8
0
  0
BLOCK
  8
0
  2
ANNULUSP
 70
64
 10
0.0000
 20
0.0000
 30
0.0000
  3
ANNULUSP
  0
CIRCLE
  8
0
 10
0.0000
 20
0.0000
 30
0.0000
 40
0.5000
  0
ENDBLK
  8
0
  0
BLOCK
  8
0
  2
THERMALP
 70
64
 10
0.0000
 20
0.0000
 30
0.0000
  3
THERMALP
  0
LINE
  8
0
 10
-0.2379
 20
0.4500
 30
0.0000
 11
0.2379
 21
0.4500
 31
0.0000
  0
LINE
  8
0
 10
0.4500
 20
0.2379
 30
0.0000
 11
0.4500
 21
-0.2379
 31
0.0000
  0
LINE
  8
0
 10
0.2379
 20
-0.4500
 30
0.0000
 11
-0.2379
 21
-0.4500
 31
0.0000
  0
LINE
  8
0
 10
-0.4500
 20
-0.2379
 30
0.0000
 11
-0.4500
 21
0.2379
 31
0.0000
  0
ENDBLK
  8
0
  0
BLOCK
  8
0
  2
OCTAGONV
 70
64
 10
0.0000
 20
0.0000
 30
0.0000
  3
OCTAGONV
  0
POLYLINE
  8
0
 66
1
 10
0.0000
 20
0.0000
 30
0.0000
 40
0.0000
 41
0.0000
 70
1
  0
VERTEX
  8
0
 10
-0.5000
 20
-0.2071
 30
0.0000
  0
VERTEX
  8
0
 10
-0.5000
 20
0.2071
 30
0.0000
  0
VERTEX
  8
0
 10
-0.2071
 20
0.5000
 30
0.0000
  0
VERTEX
  8
0
 10
0.2071
 20
0.5000
 30
0.0000
  0
VERTEX
  8
0
 10
0.5000
 20
0.2071
 30
0.0000
  0
VERTEX
  8
0
 10
0.5000
 20
-0.2071
 30
0.0000
  0
VERTEX
  8
0
 10
0.2071
 20
-0.5000
 30
0.0000
  0
VERTEX
  8
0
 10
-0.2071
 20
-0.5000
 30
0.0000
  0
SEQEND
  8
0
  0
ENDBLK
  8
0
  0
BLOCK
  8
0
  2
SQUAREV
 70
64
 10
0.0000
 20
0.0000
 30
0.0000
  3
SQUAREV
  0
SOLID
  8
0
 10
-0.5000
 20
-0.5000
 30
0.0000
 11
0.5000
 21
-0.5000
 31
0.0000
 12
-0.5000
 22
0.5000
 32
0.0000
 13
0.5000
 23
0.5000
 33
0.0000
  0
ENDBLK
  8
0
  0
BLOCK
  8
0
  2
ROUNDV
 70
64
 10
0.0000
 20
0.0000
 30
0.0000
  3
ROUNDV
  0
CIRCLE
  8
0
 10
0.0000
 20
0.0000
 30
0.0000
 40
0.5000
  0
ENDBLK
  8
0
  0
BLOCK
  8
0
  2
ANNULUSV
 70
64
 10
0.0000
 20
0.0000
 30
0.0000
  3
ANNULUSV
  0
CIRCLE
  8
0
 10
0.0000
 20
0.0000
 30
0.0000
 40
0.5000
  0
ENDBLK
  8
0
  0
BLOCK
  8
0
  2
THERMALV
 70
64
 10
0.0000
 20
0.0000
 30
0.0000
  3
THERMALV
  0
LINE
  8
0
 10
-0.2379
 20
0.4500
 30
0.0000
 11
0.2379
 21
0.4500
 31
0.0000
  0
LINE
  8
0
 10
0.4500
 20
0.2379
 30
0.0000
 11
0.4500
 21
-0.2379
 31
0.0000
  0
LINE
  8
0
 10
0.2379
 20
-0.4500
 30
0.0000
 11
-0.2379
 21
-0.4500
 31
0.0000
  0
LINE
  8
0
 10
-0.4500
 20
-0.2379
 30
0.0000
 11
-0.4500
 21
0.2379
 31
0.0000
  0
ENDBLK
  8
0
  0
BLOCK
  8
0
  2
LONGP100
 70
64
 10
0.0000
 20
0.0000
 30
0.0000
  3
LONGP100
  0
POLYLINE
  8
0
 66
1
 10
0.0000
 20
0.0000
 30
0.0000
 40
0.0000
 41
0.0000
 70
1
  0
VERTEX
  8
0
 10
-0.5000
 20
-0.5000
 30
0.0000
  0
VERTEX
  8
0
 10
0.5000
 20
-0.5000
 30
0.0000
 42
1.0000
  0
VERTEX
  8
0
 10
0.5000
 20
0.5000
 30
0.0000
  0
VERTEX
  8
0
 10
-0.5000
 20
0.5000
 30
0.0000
 42
1.0000
  0
SEQEND
  8
0
  0
ENDBLK
  8
0
  0
ENDSEC
  0
SECTION
  2
ENTITIES
  0
ARC
  8
50
 10
0.2712
 20
41.5038
 30
0.0000
 40
6.1073
 50
266.1859
 51
3.8141
  0
LINE
  8
50
 10
-0.1350
 20
0.0150
 30
0.0000
 11
-0.1350
 21
35.4100
 31
0.0000
  0
LINE
  8
50
 10
6.3650
 20
41.9100
 30
0.0000
 11
106.3650
 21
41.9100
 31
0.0000
  0
ARC
  8
50
 10
112.4588
 20
41.5038
 30
0.0000
 40
6.1073
 50
176.1859
 51
273.8141
  0
LINE
  8
50
 10
112.8650
 20
35.4100
 30
0.0000
 11
112.8650
 21
0.0150
 31
0.0000
  0
LINE
  8
50
 10
112.8650
 20
0.0150
 30
0.0000
 11
-0.1350
 21
0.0150
 31
0.0000
  0
INSERT
  8
31
  2
RECT
 10
3.8100
 20
26.8300
 30
0.0000
 41
3.5000
 42
1.6000
 43
1.0000
 50
90.0000
  0
INSERT
  8
31
  2
RECT
 10
3.8100
 20
21.4300
 30
0.0000
 41
3.5000
 42
1.6000
 43
1.0000
 50
90.0000
  0
INSERT
  8
31
  2
RECT
 10
109.2200
 20
26.8300
 30
0.0000
 41
3.5000
 42
1.6000
 43
1.0000
 50
90.0000
  0
INSERT
  8
31
  2
RECT
 10
109.2200
 20
21.4300
 30
0.0000
 41
3.5000
 42
1.6000
 43
1.0000
 50
90.0000
  0
INSERT
  8
31
  2
RECT
 10
35.1400
 20
5.7150
 30
0.0000
 41
1.1000
 42
1.0000
 43
1.0000
 50
180.0000
  0
INSERT
  8
31
  2
RECT
 10
33.4400
 20
5.7150
 30
0.0000
 41
1.1000
 42
1.0000
 43
1.0000
 50
180.0000
  0
INSERT
  8
31
  2
RECT
 10
58.8400
 20
4.4450
 30
0.0000
 41
1.1000
 42
1.0000
 43
1.0000
 50
0.0000
  0
INSERT
  8
31
  2
RECT
 10
60.5400
 20
4.4450
 30
0.0000
 41
1.1000
 42
1.0000
 43
1.0000
 50
0.0000
  0
INSERT
  8
31
  2
RECT
 10
60.4328
 20
7.1900
 30
0.0000
 41
0.3048
 42
0.9906
 43
1.0000
 50
90.0000
  0
INSERT
  8
31
  2
RECT
 10
60.4328
 20
7.8400
 30
0.0000
 41
0.3048
 42
0.9906
 43
1.0000
 50
90.0000
  0
INSERT
  8
31
  2
RECT
 10
60.4328
 20
8.4900
 30
0.0000
 41
0.3048
 42
0.9906
 43
1.0000
 50
90.0000
  0
INSERT
  8
31
  2
RECT
 10
60.4328
 20
9.1400
 30
0.0000
 41
0.3048
 42
0.9906
 43
1.0000
 50
90.0000
  0
INSERT
  8
31
  2
RECT
 10
60.4328
 20
9.7900
 30
0.0000
 41
0.3048
 42
0.9906
 43
1.0000
 50
90.0000
  0
INSERT
  8
31
  2
RECT
 10
60.4328
 20
10.4400
 30
0.0000
 41
0.3048
 42
0.9906
 43
1.0000
 50
90.0000
  0
INSERT
  8
31
  2
RECT
 10
60.4328
 20
11.0900
 30
0.0000
 41
0.3048
 42
0.9906
 43
1.0000
 50
90.0000
  0
INSERT
  8
31
  2
RECT
 10
60.4328
 20
11.7400
 30
0.0000
 41
0.3048
 42
0.9906
 43
1.0000
 50
90.0000
  0
INSERT
  8
31
  2
RECT
 10
60.4328
 20
12.3900
 30
0.0000
 41
0.3048
 42
0.9906
 43
1.0000
 50
90.0000
  0
INSERT
  8
31
  2
RECT
 10
60.4328
 20
13.0400
 30
0.0000
 41
0.3048
 42
0.9906
 43
1.0000
 50
90.0000
  0
INSERT
  8
31
  2
RECT
 10
60.4328
 20
13.6900
 30
0.0000
 41
0.3048
 42
0.9906
 43
1.0000
 50
90.0000
  0
INSERT
  8
31
  2
RECT
 10
60.4328
 20
14.3400
 30
0.0000
 41
0.3048
 42
0.9906
 43
1.0000
 50
90.0000
  0
INSERT
  8
31
  2
RECT
 10
60.4328
 20
14.9900
 30
0.0000
 41
0.3048
 42
0.9906
 43
1.0000
 50
90.0000
  0
INSERT
  8
31
  2
RECT
 10
60.4328
 20
15.6400
 30
0.0000
 41
0.3048
 42
0.9906
 43
1.0000
 50
90.0000
  0
INSERT
  8
31
  2
RECT
 10
60.4328
 20
16.2900
 30
0.0000
 41
0.3048
 42
0.9906
 43
1.0000
 50
90.0000
  0
INSERT
  8
31
  2
RECT
 10
60.4328
 20
16.9400
 30
0.0000
 41
0.3048
 42
0.9906
 43
1.0000
 50
90.0000
  0
INSERT
  8
31
  2
RECT
 10
52.5972
 20
16.9400
 30
0.0000
 41
0.3048
 42
0.9906
 43
1.0000
 50
90.0000
  0
INSERT
  8
31
  2
RECT
 10
52.5972
 20
16.2900
 30
0.0000
 41
0.3048
 42
0.9906
 43
1.0000
 50
90.0000
  0
INSERT
  8
31
  2
RECT
 10
52.5972
 20
15.6400
 30
0.0000
 41
0.3048
 42
0.9906
 43
1.0000
 50
90.0000
  0
INSERT
  8
31
  2
RECT
 10
52.5972
 20
14.9900
 30
0.0000
 41
0.3048
 42
0.9906
 43
1.0000
 50
90.0000
  0
INSERT
  8
31
  2
RECT
 10
52.5972
 20
14.3400
 30
0.0000
 41
0.3048
 42
0.9906
 43
1.0000
 50
90.0000
  0
INSERT
  8
31
  2
RECT
 10
52.5972
 20
13.6900
 30
0.0000
 41
0.3048
 42
0.9906
 43
1.0000
 50
90.0000
  0
INSERT
  8
31
  2
RECT
 10
52.5972
 20
13.0400
 30
0.0000
 41
0.3048
 42
0.9906
 43
1.0000
 50
90.0000
  0
INSERT
  8
31
  2
RECT
 10
52.5972
 20
12.3900
 30
0.0000
 41
0.3048
 42
0.9906
 43
1.0000
 50
90.0000
  0
INSERT
  8
31
  2
RECT
 10
52.5972
 20
11.7400
 30
0.0000
 41
0.3048
 42
0.9906
 43
1.0000
 50
90.0000
  0
INSERT
  8
31
  2
RECT
 10
52.5972
 20
11.0900
 30
0.0000
 41
0.3048
 42
0.9906
 43
1.0000
 50
90.0000
  0
INSERT
  8
31
  2
RECT
 10
52.5972
 20
10.4400
 30
0.0000
 41
0.3048
 42
0.9906
 43
1.0000
 50
90.0000
  0
INSERT
  8
31
  2
RECT
 10
52.5972
 20
9.7900
 30
0.0000
 41
0.3048
 42
0.9906
 43
1.0000
 50
90.0000
  0
INSERT
  8
31
  2
RECT
 10
52.5972
 20
9.1400
 30
0.0000
 41
0.3048
 42
0.9906
 43
1.0000
 50
90.0000
  0
INSERT
  8
31
  2
RECT
 10
52.5972
 20
8.4900
 30
0.0000
 41
0.3048
 42
0.9906
 43
1.0000
 50
90.0000
  0
INSERT
  8
31
  2
RECT
 10
52.5972
 20
7.8400
 30
0.0000
 41
0.3048
 42
0.9906
 43
1.0000
 50
90.0000
  0
INSERT
  8
31
  2
RECT
 10
52.5972
 20
7.1900
 30
0.0000
 41
0.3048
 42
0.9906
 43
1.0000
 50
90.0000
  0
INSERT
  8
31
  2
RECT
 10
60.5400
 20
5.7150
 30
0.0000
 41
1.0000
 42
1.1000
 43
1.0000
 50
180.0000
  0
INSERT
  8
31
  2
RECT
 10
58.8400
 20
5.7150
 30
0.0000
 41
1.0000
 42
1.1000
 43
1.0000
 50
180.0000
  0
INSERT
  8
31
  2
RECT
 10
33.4400
 20
3.1750
 30
0.0000
 41
1.0000
 42
1.1000
 43
1.0000
 50
0.0000
  0
INSERT
  8
31
  2
RECT
 10
35.1400
 20
3.1750
 30
0.0000
 41
1.0000
 42
1.1000
 43
1.0000
 50
0.0000
  0
INSERT
  8
31
  2
RECT
 10
16.4400
 20
20.4850
 30
0.0000
 41
0.5000
 42
0.9000
 43
1.0000
 50
180.0000
  0
INSERT
  8
31
  2
RECT
 10
15.6400
 20
20.4850
 30
0.0000
 41
0.5000
 42
0.9000
 43
1.0000
 50
180.0000
  0
INSERT
  8
31
  2
RECT
 10
14.8400
 20
20.4850
 30
0.0000
 41
0.5000
 42
0.9000
 43
1.0000
 50
180.0000
  0
INSERT
  8
31
  2
RECT
 10
14.0400
 20
20.4850
 30
0.0000
 41
0.5000
 42
0.9000
 43
1.0000
 50
180.0000
  0
INSERT
  8
31
  2
RECT
 10
14.0400
 20
18.8850
 30
0.0000
 41
0.5000
 42
0.9000
 43
1.0000
 50
180.0000
  0
INSERT
  8
31
  2
RECT
 10
14.8400
 20
18.8850
 30
0.0000
 41
0.5000
 42
0.9000
 43
1.0000
 50
180.0000
  0
INSERT
  8
31
  2
RECT
 10
15.6400
 20
18.8850
 30
0.0000
 41
0.5000
 42
0.9000
 43
1.0000
 50
180.0000
  0
INSERT
  8
31
  2
RECT
 10
16.4400
 20
18.8850
 30
0.0000
 41
0.5000
 42
0.9000
 43
1.0000
 50
180.0000
  0
INSERT
  8
31
  2
RECT
 10
32.9500
 20
20.4850
 30
0.0000
 41
0.5000
 42
0.9000
 43
1.0000
 50
180.0000
  0
INSERT
  8
31
  2
RECT
 10
32.1500
 20
20.4850
 30
0.0000
 41
0.5000
 42
0.9000
 43
1.0000
 50
180.0000
  0
INSERT
  8
31
  2
RECT
 10
31.3500
 20
20.4850
 30
0.0000
 41
0.5000
 42
0.9000
 43
1.0000
 50
180.0000
  0
INSERT
  8
31
  2
RECT
 10
30.5500
 20
20.4850
 30
0.0000
 41
0.5000
 42
0.9000
 43
1.0000
 50
180.0000
  0
INSERT
  8
31
  2
RECT
 10
30.5500
 20
18.8850
 30
0.0000
 41
0.5000
 42
0.9000
 43
1.0000
 50
180.0000
  0
INSERT
  8
31
  2
RECT
 10
31.3500
 20
18.8850
 30
0.0000
 41
0.5000
 42
0.9000
 43
1.0000
 50
180.0000
  0
INSERT
  8
31
  2
RECT
 10
32.1500
 20
18.8850
 30
0.0000
 41
0.5000
 42
0.9000
 43
1.0000
 50
180.0000
  0
INSERT
  8
31
  2
RECT
 10
32.9500
 20
18.8850
 30
0.0000
 41
0.5000
 42
0.9000
 43
1.0000
 50
180.0000
  0
INSERT
  8
31
  2
RECT
 10
53.4100
 20
18.8850
 30
0.0000
 41
0.5000
 42
0.9000
 43
1.0000
 50
0.0000
  0
INSERT
  8
31
  2
RECT
 10
54.2100
 20
18.8850
 30
0.0000
 41
0.5000
 42
0.9000
 43
1.0000
 50
0.0000
  0
INSERT
  8
31
  2
RECT
 10
55.0100
 20
18.8850
 30
0.0000
 41
0.5000
 42
0.9000
 43
1.0000
 50
0.0000
  0
INSERT
  8
31
  2
RECT
 10
55.8100
 20
18.8850
 30
0.0000
 41
0.5000
 42
0.9000
 43
1.0000
 50
0.0000
  0
INSERT
  8
31
  2
RECT
 10
55.8100
 20
20.4850
 30
0.0000
 41
0.5000
 42
0.9000
 43
1.0000
 50
0.0000
  0
INSERT
  8
31
  2
RECT
 10
55.0100
 20
20.4850
 30
0.0000
 41
0.5000
 42
0.9000
 43
1.0000
 50
0.0000
  0
INSERT
  8
31
  2
RECT
 10
54.2100
 20
20.4850
 30
0.0000
 41
0.5000
 42
0.9000
 43
1.0000
 50
0.0000
  0
INSERT
  8
31
  2
RECT
 10
53.4100
 20
20.4850
 30
0.0000
 41
0.5000
 42
0.9000
 43
1.0000
 50
0.0000
  0
INSERT
  8
31
  2
RECT
 10
57.2200
 20
18.8850
 30
0.0000
 41
0.5000
 42
0.9000
 43
1.0000
 50
0.0000
  0
INSERT
  8
31
  2
RECT
 10
58.0200
 20
18.8850
 30
0.0000
 41
0.5000
 42
0.9000
 43
1.0000
 50
0.0000
  0
INSERT
  8
31
  2
RECT
 10
58.8200
 20
18.8850
 30
0.0000
 41
0.5000
 42
0.9000
 43
1.0000
 50
0.0000
  0
INSERT
  8
31
  2
RECT
 10
59.6200
 20
18.8850
 30
0.0000
 41
0.5000
 42
0.9000
 43
1.0000
 50
0.0000
  0
INSERT
  8
31
  2
RECT
 10
59.6200
 20
20.4850
 30
0.0000
 41
0.5000
 42
0.9000
 43
1.0000
 50
0.0000
  0
INSERT
  8
31
  2
RECT
 10
58.8200
 20
20.4850
 30
0.0000
 41
0.5000
 42
0.9000
 43
1.0000
 50
0.0000
  0
INSERT
  8
31
  2
RECT
 10
58.0200
 20
20.4850
 30
0.0000
 41
0.5000
 42
0.9000
 43
1.0000
 50
0.0000
  0
INSERT
  8
31
  2
RECT
 10
57.2200
 20
20.4850
 30
0.0000
 41
0.5000
 42
0.9000
 43
1.0000
 50
0.0000
  0
INSERT
  8
31
  2
RECT
 10
83.7500
 20
20.4850
 30
0.0000
 41
0.5000
 42
0.9000
 43
1.0000
 50
180.0000
  0
INSERT
  8
31
  2
RECT
 10
82.9500
 20
20.4850
 30
0.0000
 41
0.5000
 42
0.9000
 43
1.0000
 50
180.0000
  0
INSERT
  8
31
  2
RECT
 10
82.1500
 20
20.4850
 30
0.0000
 41
0.5000
 42
0.9000
 43
1.0000
 50
180.0000
  0
INSERT
  8
31
  2
RECT
 10
81.3500
 20
20.4850
 30
0.0000
 41
0.5000
 42
0.9000
 43
1.0000
 50
180.0000
  0
INSERT
  8
31
  2
RECT
 10
81.3500
 20
18.8850
 30
0.0000
 41
0.5000
 42
0.9000
 43
1.0000
 50
180.0000
  0
INSERT
  8
31
  2
RECT
 10
82.1500
 20
18.8850
 30
0.0000
 41
0.5000
 42
0.9000
 43
1.0000
 50
180.0000
  0
INSERT
  8
31
  2
RECT
 10
82.9500
 20
18.8850
 30
0.0000
 41
0.5000
 42
0.9000
 43
1.0000
 50
180.0000
  0
INSERT
  8
31
  2
RECT
 10
83.7500
 20
18.8850
 30
0.0000
 41
0.5000
 42
0.9000
 43
1.0000
 50
180.0000
  0
INSERT
  8
31
  2
RECT
 10
100.2600
 20
20.4850
 30
0.0000
 41
0.5000
 42
0.9000
 43
1.0000
 50
180.0000
  0
INSERT
  8
31
  2
RECT
 10
99.4600
 20
20.4850
 30
0.0000
 41
0.5000
 42
0.9000
 43
1.0000
 50
180.0000
  0
INSERT
  8
31
  2
RECT
 10
98.6600
 20
20.4850
 30
0.0000
 41
0.5000
 42
0.9000
 43
1.0000
 50
180.0000
  0
INSERT
  8
31
  2
RECT
 10
97.8600
 20
20.4850
 30
0.0000
 41
0.5000
 42
0.9000
 43
1.0000
 50
180.0000
  0
INSERT
  8
31
  2
RECT
 10
97.8600
 20
18.8850
 30
0.0000
 41
0.5000
 42
0.9000
 43
1.0000
 50
180.0000
  0
INSERT
  8
31
  2
RECT
 10
98.6600
 20
18.8850
 30
0.0000
 41
0.5000
 42
0.9000
 43
1.0000
 50
180.0000
  0
INSERT
  8
31
  2
RECT
 10
99.4600
 20
18.8850
 30
0.0000
 41
0.5000
 42
0.9000
 43
1.0000
 50
180.0000
  0
INSERT
  8
31
  2
RECT
 10
100.2600
 20
18.8850
 30
0.0000
 41
0.5000
 42
0.9000
 43
1.0000
 50
180.0000
  0
INSERT
  8
31
  2
RECT
 10
8.8900
 20
24.1268
 30
0.0000
 41
0.7200
 42
1.7800
 43
1.0000
 50
0.0000
  0
INSERT
  8
31
  2
RECT
 10
10.1600
 20
24.1268
 30
0.0000
 41
0.7200
 42
1.7800
 43
1.0000
 50
0.0000
  0
INSERT
  8
31
  2
RECT
 10
11.4300
 20
24.1268
 30
0.0000
 41
0.7200
 42
1.7800
 43
1.0000
 50
0.0000
  0
INSERT
  8
31
  2
RECT
 10
12.7000
 20
24.1268
 30
0.0000
 41
0.7200
 42
1.7800
 43
1.0000
 50
0.0000
  0
INSERT
  8
31
  2
RECT
 10
12.7000
 20
29.2132
 30
0.0000
 41
0.7200
 42
1.7800
 43
1.0000
 50
0.0000
  0
INSERT
  8
31
  2
RECT
 10
11.4300
 20
29.2132
 30
0.0000
 41
0.7200
 42
1.7800
 43
1.0000
 50
0.0000
  0
INSERT
  8
31
  2
RECT
 10
10.1600
 20
29.2132
 30
0.0000
 41
0.7200
 42
1.7800
 43
1.0000
 50
0.0000
  0
INSERT
  8
31
  2
RECT
 10
8.8900
 20
29.2132
 30
0.0000
 41
0.7200
 42
1.7800
 43
1.0000
 50
0.0000
  0
INSERT
  8
31
  2
RECT
 10
16.5100
 20
24.1268
 30
0.0000
 41
0.7200
 42
1.7800
 43
1.0000
 50
0.0000
  0
INSERT
  8
31
  2
RECT
 10
17.7800
 20
24.1268
 30
0.0000
 41
0.7200
 42
1.7800
 43
1.0000
 50
0.0000
  0
INSERT
  8
31
  2
RECT
 10
19.0500
 20
24.1268
 30
0.0000
 41
0.7200
 42
1.7800
 43
1.0000
 50
0.0000
  0
INSERT
  8
31
  2
RECT
 10
20.3200
 20
24.1268
 30
0.0000
 41
0.7200
 42
1.7800
 43
1.0000
 50
0.0000
  0
INSERT
  8
31
  2
RECT
 10
20.3200
 20
29.2132
 30
0.0000
 41
0.7200
 42
1.7800
 43
1.0000
 50
0.0000
  0
INSERT
  8
31
  2
RECT
 10
19.0500
 20
29.2132
 30
0.0000
 41
0.7200
 42
1.7800
 43
1.0000
 50
0.0000
  0
INSERT
  8
31
  2
RECT
 10
17.7800
 20
29.2132
 30
0.0000
 41
0.7200
 42
1.7800
 43
1.0000
 50
0.0000
  0
INSERT
  8
31
  2
RECT
 10
16.5100
 20
29.2132
 30
0.0000
 41
0.7200
 42
1.7800
 43
1.0000
 50
0.0000
  0
INSERT
  8
31
  2
RECT
 10
24.1300
 20
24.1268
 30
0.0000
 41
0.7200
 42
1.7800
 43
1.0000
 50
0.0000
  0
INSERT
  8
31
  2
RECT
 10
25.4000
 20
24.1268
 30
0.0000
 41
0.7200
 42
1.7800
 43
1.0000
 50
0.0000
  0
INSERT
  8
31
  2
RECT
 10
26.6700
 20
24.1268
 30
0.0000
 41
0.7200
 42
1.7800
 43
1.0000
 50
0.0000
  0
INSERT
  8
31
  2
RECT
 10
27.9400
 20
24.1268
 30
0.0000
 41
0.7200
 42
1.7800
 43
1.0000
 50
0.0000
  0
INSERT
  8
31
  2
RECT
 10
27.9400
 20
29.2132
 30
0.0000
 41
0.7200
 42
1.7800
 43
1.0000
 50
0.0000
  0
INSERT
  8
31
  2
RECT
 10
26.6700
 20
29.2132
 30
0.0000
 41
0.7200
 42
1.7800
 43
1.0000
 50
0.0000
  0
INSERT
  8
31
  2
RECT
 10
25.4000
 20
29.2132
 30
0.0000
 41
0.7200
 42
1.7800
 43
1.0000
 50
0.0000
  0
INSERT
  8
31
  2
RECT
 10
24.1300
 20
29.2132
 30
0.0000
 41
0.7200
 42
1.7800
 43
1.0000
 50
0.0000
  0
INSERT
  8
31
  2
RECT
 10
34.2900
 20
24.1268
 30
0.0000
 41
0.7200
 42
1.7800
 43
1.0000
 50
0.0000
  0
INSERT
  8
31
  2
RECT
 10
35.5600
 20
24.1268
 30
0.0000
 41
0.7200
 42
1.7800
 43
1.0000
 50
0.0000
  0
INSERT
  8
31
  2
RECT
 10
36.8300
 20
24.1268
 30
0.0000
 41
0.7200
 42
1.7800
 43
1.0000
 50
0.0000
  0
INSERT
  8
31
  2
RECT
 10
38.1000
 20
24.1268
 30
0.0000
 41
0.7200
 42
1.7800
 43
1.0000
 50
0.0000
  0
INSERT
  8
31
  2
RECT
 10
38.1000
 20
29.2132
 30
0.0000
 41
0.7200
 42
1.7800
 43
1.0000
 50
0.0000
  0
INSERT
  8
31
  2
RECT
 10
36.8300
 20
29.2132
 30
0.0000
 41
0.7200
 42
1.7800
 43
1.0000
 50
0.0000
  0
INSERT
  8
31
  2
RECT
 10
35.5600
 20
29.2132
 30
0.0000
 41
0.7200
 42
1.7800
 43
1.0000
 50
0.0000
  0
INSERT
  8
31
  2
RECT
 10
34.2900
 20
29.2132
 30
0.0000
 41
0.7200
 42
1.7800
 43
1.0000
 50
0.0000
  0
INSERT
  8
31
  2
RECT
 10
41.9100
 20
24.1268
 30
0.0000
 41
0.7200
 42
1.7800
 43
1.0000
 50
0.0000
  0
INSERT
  8
31
  2
RECT
 10
43.1800
 20
24.1268
 30
0.0000
 41
0.7200
 42
1.7800
 43
1.0000
 50
0.0000
  0
INSERT
  8
31
  2
RECT
 10
44.4500
 20
24.1268
 30
0.0000
 41
0.7200
 42
1.7800
 43
1.0000
 50
0.0000
  0
INSERT
  8
31
  2
RECT
 10
45.7200
 20
24.1268
 30
0.0000
 41
0.7200
 42
1.7800
 43
1.0000
 50
0.0000
  0
INSERT
  8
31
  2
RECT
 10
45.7200
 20
29.2132
 30
0.0000
 41
0.7200
 42
1.7800
 43
1.0000
 50
0.0000
  0
INSERT
  8
31
  2
RECT
 10
44.4500
 20
29.2132
 30
0.0000
 41
0.7200
 42
1.7800
 43
1.0000
 50
0.0000
  0
INSERT
  8
31
  2
RECT
 10
43.1800
 20
29.2132
 30
0.0000
 41
0.7200
 42
1.7800
 43
1.0000
 50
0.0000
  0
INSERT
  8
31
  2
RECT
 10
41.9100
 20
29.2132
 30
0.0000
 41
0.7200
 42
1.7800
 43
1.0000
 50
0.0000
  0
INSERT
  8
31
  2
RECT
 10
48.8950
 20
24.1268
 30
0.0000
 41
0.7200
 42
1.7800
 43
1.0000
 50
0.0000
  0
INSERT
  8
31
  2
RECT
 10
50.1650
 20
24.1268
 30
0.0000
 41
0.7200
 42
1.7800
 43
1.0000
 50
0.0000
  0
INSERT
  8
31
  2
RECT
 10
51.4350
 20
24.1268
 30
0.0000
 41
0.7200
 42
1.7800
 43
1.0000
 50
0.0000
  0
INSERT
  8
31
  2
RECT
 10
52.7050
 20
24.1268
 30
0.0000
 41
0.7200
 42
1.7800
 43
1.0000
 50
0.0000
  0
INSERT
  8
31
  2
RECT
 10
52.7050
 20
29.2132
 30
0.0000
 41
0.7200
 42
1.7800
 43
1.0000
 50
0.0000
  0
INSERT
  8
31
  2
RECT
 10
51.4350
 20
29.2132
 30
0.0000
 41
0.7200
 42
1.7800
 43
1.0000
 50
0.0000
  0
INSERT
  8
31
  2
RECT
 10
50.1650
 20
29.2132
 30
0.0000
 41
0.7200
 42
1.7800
 43
1.0000
 50
0.0000
  0
INSERT
  8
31
  2
RECT
 10
48.8950
 20
29.2132
 30
0.0000
 41
0.7200
 42
1.7800
 43
1.0000
 50
0.0000
  0
INSERT
  8
31
  2
RECT
 10
59.0550
 20
24.1268
 30
0.0000
 41
0.7200
 42
1.7800
 43
1.0000
 50
0.0000
  0
INSERT
  8
31
  2
RECT
 10
60.3250
 20
24.1268
 30
0.0000
 41
0.7200
 42
1.7800
 43
1.0000
 50
0.0000
  0
INSERT
  8
31
  2
RECT
 10
61.5950
 20
24.1268
 30
0.0000
 41
0.7200
 42
1.7800
 43
1.0000
 50
0.0000
  0
INSERT
  8
31
  2
RECT
 10
62.8650
 20
24.1268
 30
0.0000
 41
0.7200
 42
1.7800
 43
1.0000
 50
0.0000
  0
INSERT
  8
31
  2
RECT
 10
62.8650
 20
29.2132
 30
0.0000
 41
0.7200
 42
1.7800
 43
1.0000
 50
0.0000
  0
INSERT
  8
31
  2
RECT
 10
61.5950
 20
29.2132
 30
0.0000
 41
0.7200
 42
1.7800
 43
1.0000
 50
0.0000
  0
INSERT
  8
31
  2
RECT
 10
60.3250
 20
29.2132
 30
0.0000
 41
0.7200
 42
1.7800
 43
1.0000
 50
0.0000
  0
INSERT
  8
31
  2
RECT
 10
59.0550
 20
29.2132
 30
0.0000
 41
0.7200
 42
1.7800
 43
1.0000
 50
0.0000
  0
INSERT
  8
31
  2
RECT
 10
66.6750
 20
24.1268
 30
0.0000
 41
0.7200
 42
1.7800
 43
1.0000
 50
0.0000
  0
INSERT
  8
31
  2
RECT
 10
67.9450
 20
24.1268
 30
0.0000
 41
0.7200
 42
1.7800
 43
1.0000
 50
0.0000
  0
INSERT
  8
31
  2
RECT
 10
69.2150
 20
24.1268
 30
0.0000
 41
0.7200
 42
1.7800
 43
1.0000
 50
0.0000
  0
INSERT
  8
31
  2
RECT
 10
70.4850
 20
24.1268
 30
0.0000
 41
0.7200
 42
1.7800
 43
1.0000
 50
0.0000
  0
INSERT
  8
31
  2
RECT
 10
70.4850
 20
29.2132
 30
0.0000
 41
0.7200
 42
1.7800
 43
1.0000
 50
0.0000
  0
INSERT
  8
31
  2
RECT
 10
69.2150
 20
29.2132
 30
0.0000
 41
0.7200
 42
1.7800
 43
1.0000
 50
0.0000
  0
INSERT
  8
31
  2
RECT
 10
67.9450
 20
29.2132
 30
0.0000
 41
0.7200
 42
1.7800
 43
1.0000
 50
0.0000
  0
INSERT
  8
31
  2
RECT
 10
66.6750
 20
29.2132
 30
0.0000
 41
0.7200
 42
1.7800
 43
1.0000
 50
0.0000
  0
INSERT
  8
31
  2
RECT
 10
74.9300
 20
24.1268
 30
0.0000
 41
0.7200
 42
1.7800
 43
1.0000
 50
0.0000
  0
INSERT
  8
31
  2
RECT
 10
76.2000
 20
24.1268
 30
0.0000
 41
0.7200
 42
1.7800
 43
1.0000
 50
0.0000
  0
INSERT
  8
31
  2
RECT
 10
77.4700
 20
24.1268
 30
0.0000
 41
0.7200
 42
1.7800
 43
1.0000
 50
0.0000
  0
INSERT
  8
31
  2
RECT
 10
78.7400
 20
24.1268
 30
0.0000
 41
0.7200
 42
1.7800
 43
1.0000
 50
0.0000
  0
INSERT
  8
31
  2
RECT
 10
78.7400
 20
29.2132
 30
0.0000
 41
0.7200
 42
1.7800
 43
1.0000
 50
0.0000
  0
INSERT
  8
31
  2
RECT
 10
77.4700
 20
29.2132
 30
0.0000
 41
0.7200
 42
1.7800
 43
1.0000
 50
0.0000
  0
INSERT
  8
31
  2
RECT
 10
76.2000
 20
29.2132
 30
0.0000
 41
0.7200
 42
1.7800
 43
1.0000
 50
0.0000
  0
INSERT
  8
31
  2
RECT
 10
74.9300
 20
29.2132
 30
0.0000
 41
0.7200
 42
1.7800
 43
1.0000
 50
0.0000
  0
INSERT
  8
31
  2
RECT
 10
85.0900
 20
24.1268
 30
0.0000
 41
0.7200
 42
1.7800
 43
1.0000
 50
0.0000
  0
INSERT
  8
31
  2
RECT
 10
86.3600
 20
24.1268
 30
0.0000
 41
0.7200
 42
1.7800
 43
1.0000
 50
0.0000
  0
INSERT
  8
31
  2
RECT
 10
87.6300
 20
24.1268
 30
0.0000
 41
0.7200
 42
1.7800
 43
1.0000
 50
0.0000
  0
INSERT
  8
31
  2
RECT
 10
88.9000
 20
24.1268
 30
0.0000
 41
0.7200
 42
1.7800
 43
1.0000
 50
0.0000
  0
INSERT
  8
31
  2
RECT
 10
88.9000
 20
29.2132
 30
0.0000
 41
0.7200
 42
1.7800
 43
1.0000
 50
0.0000
  0
INSERT
  8
31
  2
RECT
 10
87.6300
 20
29.2132
 30
0.0000
 41
0.7200
 42
1.7800
 43
1.0000
 50
0.0000
  0
INSERT
  8
31
  2
RECT
 10
86.3600
 20
29.2132
 30
0.0000
 41
0.7200
 42
1.7800
 43
1.0000
 50
0.0000
  0
INSERT
  8
31
  2
RECT
 10
85.0900
 20
29.2132
 30
0.0000
 41
0.7200
 42
1.7800
 43
1.0000
 50
0.0000
  0
INSERT
  8
31
  2
RECT
 10
92.7100
 20
24.1268
 30
0.0000
 41
0.7200
 42
1.7800
 43
1.0000
 50
0.0000
  0
INSERT
  8
31
  2
RECT
 10
93.9800
 20
24.1268
 30
0.0000
 41
0.7200
 42
1.7800
 43
1.0000
 50
0.0000
  0
INSERT
  8
31
  2
RECT
 10
95.2500
 20
24.1268
 30
0.0000
 41
0.7200
 42
1.7800
 43
1.0000
 50
0.0000
  0
INSERT
  8
31
  2
RECT
 10
96.5200
 20
24.1268
 30
0.0000
 41
0.7200
 42
1.7800
 43
1.0000
 50
0.0000
  0
INSERT
  8
31
  2
RECT
 10
96.5200
 20
29.2132
 30
0.0000
 41
0.7200
 42
1.7800
 43
1.0000
 50
0.0000
  0
INSERT
  8
31
  2
RECT
 10
95.2500
 20
29.2132
 30
0.0000
 41
0.7200
 42
1.7800
 43
1.0000
 50
0.0000
  0
INSERT
  8
31
  2
RECT
 10
93.9800
 20
29.2132
 30
0.0000
 41
0.7200
 42
1.7800
 43
1.0000
 50
0.0000
  0
INSERT
  8
31
  2
RECT
 10
92.7100
 20
29.2132
 30
0.0000
 41
0.7200
 42
1.7800
 43
1.0000
 50
0.0000
  0
INSERT
  8
31
  2
RECT
 10
100.3300
 20
24.1268
 30
0.0000
 41
0.7200
 42
1.7800
 43
1.0000
 50
0.0000
  0
INSERT
  8
31
  2
RECT
 10
101.6000
 20
24.1268
 30
0.0000
 41
0.7200
 42
1.7800
 43
1.0000
 50
0.0000
  0
INSERT
  8
31
  2
RECT
 10
102.8700
 20
24.1268
 30
0.0000
 41
0.7200
 42
1.7800
 43
1.0000
 50
0.0000
  0
INSERT
  8
31
  2
RECT
 10
104.1400
 20
24.1268
 30
0.0000
 41
0.7200
 42
1.7800
 43
1.0000
 50
0.0000
  0
INSERT
  8
31
  2
RECT
 10
104.1400
 20
29.2132
 30
0.0000
 41
0.7200
 42
1.7800
 43
1.0000
 50
0.0000
  0
INSERT
  8
31
  2
RECT
 10
102.8700
 20
29.2132
 30
0.0000
 41
0.7200
 42
1.7800
 43
1.0000
 50
0.0000
  0
INSERT
  8
31
  2
RECT
 10
101.6000
 20
29.2132
 30
0.0000
 41
0.7200
 42
1.7800
 43
1.0000
 50
0.0000
  0
INSERT
  8
31
  2
RECT
 10
100.3300
 20
29.2132
 30
0.0000
 41
0.7200
 42
1.7800
 43
1.0000
 50
0.0000
  0
INSERT
  8
31
  2
RECT
 10
38.7318
 20
5.7150
 30
0.0000
 41
0.7200
 42
1.7800
 43
1.0000
 50
270.0000
  0
INSERT
  8
31
  2
RECT
 10
38.7318
 20
4.4450
 30
0.0000
 41
0.7200
 42
1.7800
 43
1.0000
 50
270.0000
  0
INSERT
  8
31
  2
RECT
 10
38.7318
 20
3.1750
 30
0.0000
 41
0.7200
 42
1.7800
 43
1.0000
 50
270.0000
  0
INSERT
  8
31
  2
RECT
 10
38.7318
 20
1.9050
 30
0.0000
 41
0.7200
 42
1.7800
 43
1.0000
 50
270.0000
  0
INSERT
  8
31
  2
RECT
 10
43.8182
 20
1.9050
 30
0.0000
 41
0.7200
 42
1.7800
 43
1.0000
 50
270.0000
  0
INSERT
  8
31
  2
RECT
 10
43.8182
 20
3.1750
 30
0.0000
 41
0.7200
 42
1.7800
 43
1.0000
 50
270.0000
  0
INSERT
  8
31
  2
RECT
 10
43.8182
 20
4.4450
 30
0.0000
 41
0.7200
 42
1.7800
 43
1.0000
 50
270.0000
  0
INSERT
  8
31
  2
RECT
 10
43.8182
 20
5.7150
 30
0.0000
 41
0.7200
 42
1.7800
 43
1.0000
 50
270.0000
  0
ENDSEC
  0
EOF
